<svg width="45" height="44" viewBox="0 0 45 44" fill="none" xmlns="http://www.w3.org/2000/svg">
<path d="M1.23183 15.0864C1.96394 16.6196 3.92989 18.7634 5.72272 19.9167L8.91555 22.0621L6.37195 23.631C3.4667 25.4069 1.47695 28.2479 0.402689 32.1539C-0.140495 34.1672 0.0517109 35.6461 1.40515 38.4582C3.87839 43.6939 7.11266 44.7488 12.5443 42.2537C16.9152 40.1386 40.375 23.7642 43.4929 20.5501C45.6125 18.452 45.121 17.9161 38.1782 14.4207C35.072 12.7705 28.387 9.42258 23.4083 6.73273C18.4175 4.1633 12.212 1.47179 9.5488 0.839221C5.08766 -0.217327 4.67063 -0.137601 2.76046 2.58972C0.133989 6.33978 -0.453916 11.5111 1.23183 15.0864ZM2.96477 3.94826C3.406 3.6277 4.83719 4.98791 6.19576 7.07065C8.19986 10.1914 20.0477 25.2488 25.0612 30.9831C26.2225 32.3161 26.2104 32.4366 24.9109 33.1574C23.1823 34.0784 13.5428 23.5003 5.00559 11.4516C1.90774 7.0046 1.45769 5.37808 2.96477 3.94826ZM1.97029 30.122C2.91511 30.217 9.77728 41.9756 9.18897 42.403C6.48106 44.9286 0.0656584 36.8639 1.18833 32.4762C1.52392 31.1719 1.83531 30.1084 1.97029 30.122ZM6.73544 24.7623C7.63001 24.0008 8.60601 24.4638 10.1549 26.6873C11.292 28.2612 13.7806 31.309 15.5562 33.312C18.3822 36.3937 18.7146 37.1569 17.6054 38.0185C16.87 38.5528 15.5636 38.6648 14.5997 38.0813C12.5369 36.9009 5.26138 27.8984 5.39451 26.5737C5.44292 26.0921 6.06754 25.3034 6.73544 24.7623ZM16.0141 5.01648C17.1632 6.46999 26.2231 19.4226 31.0118 26.7156C32.026 28.1556 31.9464 28.2692 30.1606 27.7248C29.0254 27.4891 24.2697 21.9023 19.5987 15.4727C12.5861 5.88834 11.3868 3.57833 12.7607 3.47314C13.7297 3.32725 15.1539 4.07858 16.0141 5.01648ZM29.4081 11.4714C31.2373 12.2634 38.563 22.1225 38.4299 23.4471C38.3936 23.8084 37.762 23.9882 37.0871 23.9204C35.9399 23.8051 27.2867 12.2313 27.4077 11.0271C27.444 10.6658 28.3768 10.8812 29.4081 11.4714ZM42.1586 18.2265C43.074 19.2917 43.0498 19.5325 42.1604 19.5647C41.0131 19.4494 40.1218 18.1435 40.6911 17.2276C40.9177 17.0071 41.5563 17.4362 42.1586 18.2265Z" fill="black"/>
</svg>
