<svg width="46" height="44" viewBox="0 0 46 44" fill="none" xmlns="http://www.w3.org/2000/svg">
<path d="M43.4438 29.4305C42.8108 27.8538 40.9853 25.5892 39.2696 24.3241L36.2199 21.9797L38.8582 20.5759C41.8706 18.9886 44.0373 16.2802 45.3581 12.4504C46.0284 10.4759 45.9307 8.98765 44.7591 6.09512C42.6243 0.712557 39.4637 -0.546133 33.8843 1.59797C29.3876 3.43044 4.9327 18.2777 1.6164 21.2868C-0.632502 23.2456 -0.176139 23.8118 6.52998 27.7422C9.52486 29.5869 15.9831 33.3536 20.7803 36.3551C25.5974 39.2371 31.619 42.3183 34.2365 43.1192C38.6213 44.4576 39.0425 44.4046 41.1225 41.8045C43.9824 38.2293 44.8984 33.1059 43.4438 29.4305ZM41.0051 40.4357C40.5444 40.7275 39.2027 39.2789 37.9795 37.1139C36.1782 33.8719 25.3132 18.0906 20.675 12.0487C19.601 10.6444 19.6208 10.525 20.9635 9.88832C22.7473 9.07926 31.6935 20.2498 39.4462 32.8176C42.2546 37.4529 42.6002 39.1047 41.0051 40.4357ZM43.6643 14.3784C42.7274 14.2235 36.6279 2.05169 37.2423 1.6626C40.1055 -0.685347 45.9943 7.77146 44.5945 12.0788C44.1766 13.3591 43.7981 14.4005 43.6643 14.3784ZM38.5675 19.4238C37.6263 20.1268 36.6817 19.6026 35.2775 17.285C34.243 15.6418 31.9535 12.4418 30.3091 10.3298C27.685 7.07437 27.402 6.29154 28.5637 5.50229C29.3316 5.01592 30.6426 4.98737 31.5674 5.63099C33.5508 6.94036 40.2383 16.3879 40.0211 17.7014C39.9421 18.179 39.2685 18.9263 38.5675 19.4238ZM28.0503 38.5387C26.9961 37.015 18.7794 23.5117 14.4648 15.9286C13.5443 14.427 13.631 14.3186 15.3786 14.9756C16.4964 15.2832 20.8867 21.1614 25.1388 27.8755C31.5268 37.8869 32.5767 40.2686 31.1988 40.2861C30.2225 40.3699 28.849 39.5295 28.0503 38.5387ZM15.0945 31.244C13.3195 30.3371 6.63638 20.0315 6.85359 18.718C6.91283 18.3598 7.55459 18.2206 8.22378 18.3313C9.36139 18.5194 17.26 30.6207 17.0625 31.8148C17.0033 32.173 16.0862 31.8986 15.0945 31.244ZM2.80009 23.6906C1.95428 22.5694 1.99378 22.3305 2.88346 22.355C4.02108 22.5431 4.82739 23.9032 4.20099 24.781C3.96074 24.9866 3.3508 24.5177 2.80009 23.6906Z" fill="black"/>
</svg>
