<svg width="69" height="81" viewBox="0 0 69 81" fill="none" xmlns="http://www.w3.org/2000/svg">
<rect width="1440" height="1004" transform="translate(-604 -104)" fill="white"/>
<path d="M6.47023 39.7547C6.52628 39.546 5.66945 39.8218 5.60025 39.8421C5.05584 40.0018 4.47842 40.0861 4.03477 40.4667C3.72755 40.7303 3.50795 40.863 3.3353 41.2546C3.22198 41.5116 2.88289 41.7834 2.88641 42.0815C2.89322 42.6582 2.77849 43.2428 2.81052 43.8175C2.81448 43.8885 2.81315 44.218 2.69997 44.0459C2.56779 43.8449 2.60934 43.5289 2.55206 43.2985C2.50659 43.1156 2.49446 42.9131 2.41443 42.7412C2.3212 42.5409 2.34874 42.4183 2.48959 42.6771C2.8782 43.3913 2.68811 44.2623 3.03834 44.997C3.35893 45.6696 3.52793 46.3989 3.65699 47.128C3.79565 47.9113 3.67604 48.6309 3.38273 49.3511C3.0903 50.0693 2.77688 50.8289 2.71758 51.6044C2.65417 52.4336 2.3618 53.5816 2.86158 54.3414C3.2258 54.8952 3.89382 55.3373 4.48049 55.6002C4.80034 55.7434 5.34371 56.0753 5.70158 56.0623C6.16968 56.0454 6.62028 55.9672 6.81882 55.4796C6.98454 55.0727 7.15026 54.6657 7.31598 54.2587C7.50484 53.795 7.5608 53.1764 7.38299 52.6909C7.29279 52.4446 7.12224 52.245 7.04065 51.9906C6.96367 51.7505 6.9039 51.515 6.85945 51.2647C6.81533 51.0164 6.75577 50.7685 6.72903 50.5175C6.70736 50.3141 6.76032 49.9724 6.62133 49.8005C6.44272 49.5796 6.26666 49.3385 6.0714 49.1279C5.92191 48.9666 5.4195 48.9447 5.22601 49.043C4.9655 49.1754 4.74759 49.8472 4.71713 50.1119C4.55539 51.5175 4.41525 53.0415 4.48821 54.4534C4.53163 55.2938 5.21748 54.7197 5.50285 54.3723C5.84645 53.954 6.31637 53.4091 6.33718 52.84C6.35571 52.3332 6.16519 51.8447 6.04849 51.3622C5.81635 50.4024 7.26748 49.5073 7.87251 49.0094C8.02362 48.8851 8.14147 48.7721 8.28477 48.9354C8.39147 49.0569 8.43935 49.0914 8.48344 48.8866C8.62259 48.2402 8.41567 47.6136 8.48201 46.9789C8.5587 46.2453 9.53013 45.8731 10.1587 45.737C10.7152 45.6164 11.3435 45.3643 11.787 44.9838C11.9041 44.8833 12.0311 44.7474 12.1849 44.7041C12.3984 44.644 11.4335 44.9055 11.3485 44.9244C10.9969 45.0026 10.6437 45.0599 10.2829 45.0444C10.0817 45.0357 9.89273 45.009 9.73358 45.1537C9.404 45.4534 9.66929 45.2158 9.88091 45.1191C10.6515 44.7669 11.6284 44.8018 12.4358 44.9745C12.7114 45.0335 12.9944 45.1875 13.2204 45.3466C13.5888 45.606 13.6854 45.71 13.7141 46.1401C13.7391 46.5153 13.8347 46.7951 13.9938 47.1234C14.0603 47.2608 13.9414 47.0648 13.9287 47.0163C13.8739 46.8077 14.0285 46.6079 13.9994 46.4035C13.9835 46.2914 14.2138 46.5458 14.2269 46.5768C14.3326 46.8278 14.3009 47.145 14.2573 47.406C14.2247 47.6016 14.1305 47.7733 14.1061 47.9755C14.0752 48.2306 14.1457 48.4736 14.0502 48.724C13.9793 48.9097 13.9631 49.2896 13.7808 49.3855C13.4588 49.5549 13.2804 50.0554 12.9878 50.2826C12.3622 50.7682 11.7911 51.1493 10.9532 51.0948C10.6316 51.0739 10.2885 51.0854 9.9821 50.9658C9.70745 50.8585 9.37315 50.7677 9.12452 50.6095C8.8534 50.4371 9.03365 50.1729 9.14669 49.9525C9.53228 49.2005 10.3457 48.6689 10.9584 48.1205C11.3329 47.7854 11.8648 47.3546 12.0827 46.8921C12.1416 46.767 12.2134 46.5806 12.0081 46.5672C11.3926 46.5272 10.9485 46.873 10.5812 47.3078C10.3767 47.5499 9.50589 48.2734 10.2543 48.3001C10.7778 48.3187 11.2873 48.2142 11.8047 48.1601C12.2556 48.1131 12.0228 48.4915 11.8686 48.7436C11.8197 48.8236 10.8898 49.9057 10.8797 49.7257C10.8631 49.4267 11.2366 49.1546 11.2728 48.855C11.2962 48.6619 10.7612 48.488 10.6706 48.4486C9.88004 48.1046 9.07752 47.9562 8.21735 47.9474C7.93966 47.9445 7.51544 47.9006 7.24736 48.0221C7.17814 48.0535 7.14546 48.136 7.07822 48.1706C6.42923 48.5047 6.02081 47.5298 5.80413 47.1154C5.11538 45.7983 3.69853 44.2367 4.35541 42.6236C4.50664 42.2522 4.60825 41.9525 4.99017 41.7707C5.44852 41.5527 5.82246 41.6155 6.09938 41.1216C6.24838 40.8559 6.57487 41.0195 6.77689 40.8612C6.93278 40.7389 6.95995 40.5601 6.98072 40.3692C7.01238 40.0783 7.61609 40.8752 7.62506 40.8875C7.85026 41.1977 8.12518 41.4374 8.34017 41.7572C8.61798 42.1704 8.96977 42.5329 9.28319 42.9195C9.4332 43.1045 9.73667 43.3612 9.75638 43.617C9.78671 44.0104 9.45396 44.5981 9.25088 44.9186C8.88427 45.4971 6.63474 47.1376 6.26021 46.004C5.98573 45.1732 6.04265 44.1896 6.05976 43.3281C6.06875 42.876 6.07927 42.6161 6.14644 42.1855C6.1646 42.0691 6.1911 41.9541 6.21732 41.8393C6.23729 41.7518 6.332 41.6522 6.28165 41.578C6.23891 41.515 6.18323 41.695 6.14425 41.7604C6.0144 41.9783 5.85621 42.2864 5.75616 42.5069C5.57314 42.9101 5.05973 43.8248 5.34718 44.286C5.4649 44.4749 5.74121 44.368 5.8951 44.3093C6.62428 44.0313 7.37028 43.6331 7.99739 43.1671C8.04135 43.1345 8.15679 43.0268 8.10428 43.0424C8.02654 43.0654 7.7381 43.2479 7.72189 43.2583C7.27813 43.5412 6.817 43.8433 6.45871 44.2338C6.17916 44.5385 6.69466 43.7698 6.78582 43.6974C7.21612 43.3557 7.09389 43.8018 6.98611 44.0665" stroke="#FF5539" stroke-width="3" stroke-linecap="round"/>
<path d="M11.2057 7.26403C8.94124 12.6818 7.73989 14.3972 5.55404 15.4836C2.82172 16.8416 2.79449 16.9703 4.87345 19.0288C6.54213 20.7156 6.67957 21.7162 5.88878 24.1321C5.3161 25.8474 4.52454 27.2769 4.08727 27.3627C3.59527 27.377 4.55331 29.121 6.16751 31.0651L9.01312 34.7818L5.0792 37.5264C1.88289 39.7564 1.00911 40.9143 0.819497 43.13C0.629374 44.6882 0.985968 46.3035 1.66962 46.7037C2.29856 47.0325 2.46298 47.5757 1.97124 47.9188C1.56146 48.2047 0.934061 49.8486 0.525301 51.4497C0.0350985 53.7654 0.418673 54.9233 1.75901 56.1813C4.19329 58.2112 8.45683 57.5393 9.27486 54.9948C9.68388 53.7226 10.4215 53.2079 11.9519 52.9077C13.1818 52.7076 14.138 52.1501 14.3017 51.707C14.3834 51.321 14.6293 51.1495 14.9029 51.5068C15.6143 52.436 14.0589 55.8239 12.3106 57.1533C11.0812 58.011 11.1634 58.2826 12.3936 58.4113C15.1272 58.6972 16.7424 61.9564 16.0893 65.7017C15.5721 68.4749 15.7365 69.0181 16.802 68.2748C18.7689 66.9025 23.3624 68.6322 24.3756 71.1052C25.0328 72.6204 26.2907 73.278 30.0358 73.7355C35.1204 74.4645 38.2383 76.8946 37.612 79.8537C37.3669 81.0116 37.531 81.226 38.2686 80.7114C38.8423 80.3111 39.0332 79.7393 38.8143 79.4534C38.5407 79.0961 38.2378 76.2371 38.0986 72.9349C37.8769 69.0324 37.2192 66.8596 36.3169 66.5022C33.6922 65.7017 32.6242 63.1572 33.3598 60.0123C34.0684 57.3249 33.9314 56.9818 32.1821 56.9961C29.9955 57.0962 27.2591 53.1936 28.5151 51.5497C28.9794 51.0065 30.729 51.321 32.4791 52.2931C35.3776 53.7797 35.8696 53.7654 36.8523 52.0929C38.1351 49.6628 41.0044 48.6479 45.0776 49.2054C47.9206 49.6342 48.3031 49.477 48.5752 47.8616C48.819 45.0598 54.9661 41.1001 58.2191 41.5719C60.1874 41.8435 60.8705 41.5862 61.2523 40.4426C61.5796 39.5563 63.3824 37.9695 65.2949 36.8545C67.2074 35.7395 68.6826 34.7103 68.5732 34.5674C68.4637 34.4244 66.9602 34.2672 65.2109 34.2814C63.4616 34.2957 61.7392 33.8526 61.3561 33.3523C60.9183 32.7805 59.0048 32.5804 57.2557 32.9234C53.6209 33.5953 49.9022 32.0229 49.2718 29.7214C49.0796 28.6492 48.369 28.7064 46.484 30.0216C43.9433 31.7941 38.5036 31.4225 37.0261 29.4926C36.5336 28.8494 35.3587 29.4498 32.955 31.5654C29.5405 34.4959 29.4858 34.4244 27.8441 32.2802C25.9288 29.7785 26.91 26.1333 30.0243 23.9605C31.5815 22.8741 31.6905 22.3595 30.3506 21.7591C29.5303 21.3445 28.0533 20.0723 27.123 18.8572C25.7277 17.199 25.8089 16.1555 27.3373 13.225C28.4564 11.238 29.2477 9.47975 29.0835 9.26533C28.9194 9.0509 27.3067 9.07949 25.4482 9.27962C20.9113 9.92289 17.3836 7.77865 15.8223 3.60453C15.1648 1.76049 14.4804 0.373878 14.3437 0.359583C14.207 0.345288 12.8428 3.49017 11.2057 7.26403ZM17.2196 7.89301C18.4505 9.00802 21.2394 10.023 23.3443 10.3089C27.0894 10.7663 27.1441 10.8378 26.2163 12.9105C24.3067 17.6422 24.3891 18.2425 26.9331 20.7442C29.1215 22.9456 29.1765 23.3458 27.5379 25.147C24.998 27.9059 24.6715 29.7786 26.149 31.7084C27.3529 33.2808 27.1345 33.6525 23.8562 35.9397C21.8073 37.3692 19.4856 39.4276 18.6665 40.657C17.1101 42.7298 15.5247 42.6297 16.5071 40.6284C16.7527 40.1281 16.8596 36.9832 16.8571 33.6954C16.8537 29.4212 17.5078 26.991 19.0098 25.1756C20.6756 23.2458 20.7301 22.9885 19.2821 23.889C18.162 24.5609 17.1782 24.9183 17.0141 24.7038C15.9196 23.2744 16.5979 16.7702 18.0453 15.212C18.9466 14.2543 19.4651 13.125 19.1915 12.7676C18.9178 12.4102 18.2894 12.739 17.7979 13.4109C17.3612 14.1542 16.7875 14.5545 16.6233 14.34C16.5139 14.1971 16.0478 12.4388 15.6637 10.6233C14.2648 4.36217 13.9108 6.03467 14.9557 13.9684C15.8358 21.0301 15.0453 23.7747 12.9658 21.0586C12.528 20.4868 11.7624 20.1438 11.1338 20.1438C10.4778 20.2724 11.2165 21.0729 12.7754 22.288C14.9633 23.8319 15.5108 24.8754 15.6768 27.3913C15.9805 31.2366 15.3795 31.7655 12.918 29.8643C11.8241 29.0924 10.6484 28.7064 10.2386 28.9923C9.82884 29.2782 10.7314 29.9644 12.2079 30.5791C13.6572 31.3224 15.1611 32.1372 15.4895 32.5661C16.2009 33.4952 15.798 42.6583 14.9784 43.2301C14.6506 43.4588 12.9827 42.7583 11.2598 41.6576C9.59168 40.6284 7.67739 39.4419 7.04846 39.1131C6.36481 38.7129 6.41902 38.1268 7.10216 37.8695C7.81254 37.4835 8.71406 36.8545 9.23303 36.3828C10.3257 35.5108 8.59898 29.4784 7.09525 28.9923C6.43908 28.7922 6.41031 26.9482 6.92801 24.8325C7.50017 22.4595 7.33446 20.2724 6.4589 19.1288C5.36443 17.6993 5.44588 16.9846 6.9211 15.9554C7.84985 15.1977 9.7066 12.6961 11.0988 10.4089C12.4364 8.05025 13.8288 6.09185 14.1842 6.06326C14.6214 5.97749 15.9068 6.83519 17.2196 7.89301ZM6.28387 40.0852C8.82632 40.6141 8.96531 43.5874 6.34269 45.4172C4.37573 46.7895 2.13362 45.8318 1.50289 43.2015C1.03685 41.4432 3.79615 39.6277 6.28387 40.0852ZM4.51344 48.1189C6.29002 47.976 8.6169 52.4932 7.90806 54.8519C7.49904 56.1241 6.87062 56.4529 5.47659 56.4386C2.96189 56.4386 1.23798 54.0227 1.70044 51.1781C2.0812 48.7193 2.3543 48.4191 4.51344 48.1189ZM11.1799 44.3451C13.1202 43.759 15.3636 46.3607 14.9006 48.5478C14.3832 50.9922 11.0771 52.7505 9.29953 51.5783C6.04517 49.4627 7.08081 45.5601 11.1799 44.3451ZM31.6989 33.2093C35.3875 31.2938 36.754 31.108 39.5701 31.9943C41.73 32.6804 43.7799 32.5661 45.3646 31.6798C47.0312 30.7363 48.0699 30.7792 48.836 31.7798C50.5872 34.067 53.4305 34.8247 57.1201 34.2243C58.9511 33.824 60.3999 33.9098 60.4001 34.2386C60.3184 34.6245 56.5744 35.4822 52.2289 36.2113C46.0248 37.1404 44.3574 37.0976 45.2312 35.9397C45.8047 35.2106 45.8861 34.4959 45.4761 34.453C45.066 34.4101 44.274 35.182 43.728 36.1112C43.0184 37.4835 41.5976 38.2554 38.5914 38.9273L34.3829 39.9994L36.5127 37.1976C37.6869 35.6109 38.3692 34.3672 37.9592 34.3243C37.5492 34.2815 36.3475 35.6681 35.0642 37.4406C33.2077 40.271 32.5521 40.7285 29.8737 41.1716C27.3321 41.629 27.004 41.529 27.9869 40.1853C28.5057 39.3847 28.7235 38.3555 28.4499 37.9981C28.1216 37.5693 27.3842 38.4127 26.6474 39.9137C25.6924 42.1151 24.9276 42.7583 22.0583 43.7733C18.0686 45.1313 17.2755 44.5881 19.0773 41.6862C20.1964 39.6992 22.5732 38.041 31.6989 33.2093ZM28.7009 44.4023C31.2708 45.1313 31.4075 45.1456 29.9033 44.002C26.3206 41.4575 32.7707 40.6856 37.1188 43.2444L40.0448 44.9312L37.7472 42.9156C36.571 41.8721 35.8322 40.7428 36.2419 40.4569C37.8538 39.4419 42.5004 39.2704 44.6878 40.1567C46.6838 40.9572 46.9025 40.9143 46.1636 39.785C45.6163 39.0703 45.5611 38.3412 46.0803 38.1983C48.4851 37.3977 63.0525 35.568 63.3262 35.9254C64.2017 37.069 59.7213 40.0852 56.0045 40.8142C51.2765 41.7005 49.9924 42.4867 48.1909 45.7174C47.0992 47.9045 46.6347 48.1189 43.1633 48.0189C40.4572 47.9331 38.7356 48.4763 37.2334 49.963C35.3486 51.6069 34.4193 51.707 30.8924 50.5491C28.5958 49.8486 26.3542 49.5484 26.0264 49.7772C25.1249 50.4061 18.7271 48.2905 17.7968 47.0754C16.6476 45.5744 25.502 43.3444 28.7009 44.4023ZM27.506 54.3372C28.8471 56.5815 30.1054 57.8967 30.898 57.7823C31.7453 57.7394 32.1014 58.6972 32.0485 60.9272C31.8591 63.4717 32.3794 64.6439 34.3214 66.3593C36.619 68.3749 37.8247 72.2488 36.3495 73.278C36.1036 73.4496 34.1069 71.6627 31.9729 69.204C29.0181 65.6731 28.4159 64.5581 29.3174 63.9291C30.219 63.3002 30.0001 63.0143 28.1685 62.7569C26.747 62.5425 24.8599 61.2274 23.656 59.6549C21.9049 57.3678 21.8499 56.9675 23.5173 57.0104C26.5787 57.0676 25.9493 56.0812 22.532 55.3951L19.2515 54.7232L19.3093 58.7401C19.394 62.2995 19.3668 62.4282 20.0756 60.0695L20.757 57.5107L23.1101 60.5841C24.5876 62.5139 25.3273 64.6296 25.2191 66.1306C24.92 68.2033 24.9748 68.2748 25.493 66.8167C26.3385 64.4723 27.9244 65.23 31.4267 69.8043L33.8893 73.0207L30.0072 72.2202C27.6562 71.777 25.2499 70.6049 23.9641 69.0896C22.7329 67.6458 20.8461 66.6595 19.6435 66.7309C17.5935 66.8453 17.4294 66.6309 17.4821 64.0721C17.4535 62.5568 16.7139 60.4412 15.8383 59.2976C14.7438 57.8681 14.6606 56.2813 15.4789 54.0656L16.7337 50.7778L18.3201 52.193C19.4963 53.2365 19.6055 53.0507 18.3741 51.2781L16.8691 49.1482L21.1064 49.9201C24.9337 50.6491 25.7268 51.1924 27.506 54.3372Z" fill="black"/>
</svg>
