<svg width="71" height="86" viewBox="0 0 71 86" fill="none" xmlns="http://www.w3.org/2000/svg">
<path d="M10.9661 32.8505C11.1028 32.6831 10.2082 32.5835 10.1367 32.5737C9.57471 32.4962 9.01346 32.3364 8.45278 32.5018C8.06453 32.6163 7.80981 32.6474 7.49183 32.9338C7.28313 33.1218 6.86243 33.2307 6.74348 33.504C6.51334 34.0328 6.16909 34.5191 5.96276 35.0564C5.93723 35.1229 5.80101 35.4228 5.76829 35.2195C5.73009 34.982 5.89752 34.7107 5.93969 34.4771C5.97317 34.2917 6.04513 34.1019 6.04259 33.9123C6.03963 33.6914 6.11501 33.5909 6.1374 33.8847C6.19918 34.6954 5.6688 35.412 5.68712 36.2257C5.70389 36.9706 5.55912 37.7051 5.37803 38.4231C5.18348 39.1943 4.77945 39.8017 4.21669 40.3385C3.65563 40.8737 3.05842 41.4381 2.68646 42.1212C2.28877 42.8515 1.55158 43.7789 1.69603 44.6768C1.8013 45.3312 2.22942 46.0083 2.65683 46.4885C2.88985 46.7502 3.24948 47.2756 3.58122 47.4105C4.01513 47.5869 4.45823 47.7002 4.83915 47.3369C5.1571 47.0336 5.47506 46.7303 5.79301 46.427C6.15536 46.0814 6.45994 45.5401 6.49671 45.0244C6.51537 44.7628 6.44161 44.5108 6.47148 44.2453C6.49965 43.9948 6.54166 43.7554 6.60369 43.5089C6.66525 43.2643 6.71249 43.0138 6.79099 42.7739C6.85459 42.5794 7.04292 42.2895 6.9866 42.0758C6.91422 41.801 6.85245 41.509 6.76068 41.2368C6.69043 41.0284 6.2411 40.8026 6.02433 40.8129C5.73246 40.8268 5.25836 41.3503 5.12207 41.5793C4.39844 42.7952 3.64599 44.1279 3.13386 45.4456C2.82905 46.2299 3.68992 45.9874 4.09262 45.7875C4.57749 45.5467 5.22945 45.2423 5.48168 44.7317C5.70631 44.277 5.73273 43.7534 5.82403 43.2655C6.00565 42.2948 7.69618 42.0731 8.45211 41.8669C8.64092 41.8154 8.79469 41.7607 8.85849 41.9684C8.906 42.123 8.93555 42.174 9.05972 42.0053C9.45156 41.4727 9.51964 40.8163 9.84029 40.2646C10.2109 39.6269 11.2495 39.6856 11.8786 39.819C12.4357 39.9371 13.1122 39.9646 13.6727 39.7993C13.8206 39.7557 13.9922 39.6837 14.1502 39.7073C14.3696 39.74 13.3823 39.583 13.297 39.5654C12.9442 39.4926 12.5985 39.4002 12.2759 39.2381C12.0958 39.1478 11.9344 39.0459 11.73 39.1127C11.3065 39.251 11.6459 39.143 11.8786 39.1415C12.7258 39.1361 13.6026 39.5683 14.2683 40.0568C14.4955 40.2236 14.6905 40.48 14.8314 40.7177C15.0611 41.1054 15.1066 41.2398 14.9565 41.6439C14.8256 41.9964 14.798 42.2908 14.8086 42.6555C14.813 42.808 14.7849 42.5805 14.7932 42.5311C14.8287 42.3183 15.0516 42.1995 15.1088 42.0011C15.1402 41.8923 15.2461 42.2187 15.2453 42.2524C15.2388 42.5246 15.0799 42.801 14.9332 43.0212C14.8232 43.1862 14.667 43.3043 14.5618 43.4787C14.4291 43.6988 14.3938 43.9493 14.204 44.1385C14.0633 44.2789 13.8927 44.6188 13.6872 44.6315C13.3241 44.654 12.9563 45.0375 12.5962 45.1248C11.8265 45.3114 11.1494 45.4249 10.4075 45.0318C10.1227 44.8809 9.80498 44.7507 9.57456 44.516C9.36798 44.3057 9.10029 44.0858 8.93832 43.8396C8.76171 43.5712 9.03437 43.4041 9.22784 43.2494C9.88777 42.7215 10.8476 42.57 11.6312 42.3209C12.1102 42.1687 12.7719 41.9938 13.1602 41.6612C13.2652 41.5713 13.4071 41.4306 13.2254 41.3343C12.6803 41.0455 12.1335 41.179 11.6202 41.425C11.3345 41.562 10.2437 41.865 10.9154 42.1961C11.3853 42.4277 11.8929 42.5411 12.3869 42.7039C12.8175 42.8458 12.4501 43.0955 12.2061 43.2623C12.1287 43.3152 10.8369 43.9211 10.9016 43.7528C11.0089 43.4733 11.4611 43.3781 11.617 43.1198C11.7174 42.9532 11.3007 42.5752 11.2343 42.5022C10.6541 41.8644 9.98291 41.4001 9.20194 41.0395C8.94982 40.9231 8.58086 40.7092 8.28652 40.7102C8.21051 40.7104 8.1469 40.7723 8.07138 40.7763C7.34247 40.8151 7.36952 39.7583 7.3417 39.2916C7.25327 37.8079 6.60094 35.8028 7.86125 34.6006C8.15141 34.3238 8.36693 34.0921 8.78978 34.0828C9.29725 34.0718 9.6126 34.2823 10.0676 33.9454C10.3124 33.7641 10.5432 34.0471 10.7923 33.9854C10.9846 33.9379 11.0827 33.7859 11.1799 33.6203C11.328 33.3679 11.5521 34.3422 11.5552 34.3571C11.6335 34.7324 11.786 35.0637 11.8511 35.4435C11.9351 35.9342 12.1074 36.4091 12.2349 36.8901C12.2959 37.1204 12.4674 37.479 12.3806 37.7203C12.247 38.0916 11.7026 38.4913 11.386 38.7004C10.8145 39.0779 8.09025 39.6522 8.21323 38.4647C8.30336 37.5944 8.75844 36.7205 9.12711 35.9418C9.32063 35.533 9.43672 35.3003 9.67448 34.9351C9.73875 34.8363 9.81005 34.7423 9.88105 34.6483C9.9351 34.5767 10.0623 34.5247 10.0468 34.4363C10.0336 34.3613 9.90907 34.5028 9.84671 34.5464C9.63897 34.692 9.36839 34.9082 9.18678 35.0682C8.85457 35.361 8.01137 35.985 8.08454 36.5235C8.1145 36.744 8.41036 36.7597 8.57478 36.7693C9.35383 36.8146 10.1975 36.7571 10.9605 36.5891C11.014 36.5773 11.1634 36.5264 11.1091 36.5191C11.0288 36.5082 10.6909 36.5565 10.6719 36.5593C10.1511 36.6355 9.60669 36.722 9.11982 36.9314C8.73993 37.0948 9.52521 36.6049 9.63803 36.5762C10.1706 36.4409 9.87626 36.7977 9.66948 36.9949" stroke="#FF5539" stroke-width="3" stroke-linecap="round"/>
<path d="M28.602 5.15491C24.316 9.16864 22.5171 10.241 20.078 10.336C17.0291 10.4549 16.9516 10.5611 18.0042 13.2908C18.8349 15.5133 18.5502 16.4824 16.8387 18.3619C15.6133 19.6919 14.3054 20.6714 13.8714 20.5704C13.4168 20.3818 13.5758 22.3652 14.2514 24.8001L15.3238 29.3566L10.6105 30.2478C6.78104 30.9719 5.50946 31.6699 4.42838 33.6133C3.61635 34.9566 3.27957 36.5762 3.73911 37.2215C4.17804 37.7791 4.10539 38.342 3.51623 38.4534C3.02527 38.5462 1.77923 39.7886 0.750184 41.0814C-0.646088 42.9929 -0.770777 44.2063 -0.0637696 45.903C1.32471 48.7523 5.48906 49.8869 7.27811 47.9012C8.17263 46.9084 9.05636 46.7413 10.5754 47.0947C11.7792 47.4162 12.88 47.2996 13.2109 46.9625C13.4436 46.6439 13.7382 46.5882 13.8413 47.0263C14.1094 48.1654 11.3021 50.6182 9.16246 51.1143C7.68958 51.3928 7.65325 51.6742 8.72257 52.2958C11.0988 53.6769 11.2364 57.3119 9.10563 60.4604C7.49726 62.7781 7.42461 63.3409 8.70111 63.0996C11.0577 62.654 14.5387 66.1144 14.4494 68.7854C14.4278 70.4369 15.3056 71.5523 18.5342 73.5045C22.8734 76.2534 24.7214 79.748 22.9373 82.1903C22.2392 83.1461 22.301 83.4089 23.1848 83.2418C23.8721 83.1119 24.2806 82.6685 24.1981 82.3181C24.095 81.8799 24.9905 79.148 26.2168 76.0789C27.6141 72.4283 27.9047 70.1768 27.2281 69.481C25.1622 67.6751 25.2309 64.9164 27.1907 62.3493C28.9385 60.1883 28.9542 59.8193 27.3527 59.1153C25.3172 58.3104 24.4206 53.6292 26.2401 52.6445C26.8862 52.3393 28.3532 53.3432 29.5512 54.9472C31.5858 57.4912 32.0404 57.6798 33.6223 56.557C35.7884 54.8661 38.8215 55.1163 42.3084 57.2943C44.7259 58.8507 45.1393 58.864 46.0495 57.5021C47.4203 55.0464 54.6502 53.9539 57.4241 55.7175C59.1081 56.7719 59.8367 56.8172 60.6537 55.9306C61.3155 55.2563 63.6102 54.5478 65.8117 54.3146C68.0132 54.0814 69.7806 53.7472 69.7394 53.572C69.6981 53.3967 68.3912 52.6371 66.7897 51.9332C65.1881 51.2292 63.7987 50.1191 63.6544 49.5057C63.4894 48.8047 61.826 47.8379 60.0899 47.434C56.499 46.557 53.7516 43.5986 54.1198 41.2409C54.3839 40.1843 53.7122 39.9451 51.4538 40.3722C48.4099 40.9477 43.6004 38.3792 43.0436 36.0134C42.858 35.2247 41.5402 35.2909 38.4806 36.2355C34.165 37.5091 34.1444 37.4214 33.5258 34.7927C32.804 31.7259 35.193 28.803 38.9243 28.0975C40.79 27.7448 41.1002 27.32 40.1242 26.2232C39.5458 25.5089 38.72 23.743 38.3694 22.2534C37.7763 20.169 38.2781 19.2504 40.8733 17.2038C42.7085 15.8501 44.1509 14.5706 44.0891 14.3077C44.0272 14.0448 42.5445 13.41 40.7672 12.8308C36.3652 11.5581 34.0262 8.15634 34.3129 3.70902C34.469 1.75752 34.413 0.212201 34.2942 0.143142C34.1754 0.0740828 31.642 2.38355 28.602 5.15491ZM33.8298 8.19347C34.4956 9.71501 36.6235 11.7838 38.4263 12.9073C41.6549 14.8595 41.6755 14.9471 39.9797 16.4575C36.2985 19.9908 36.1277 20.5723 37.4229 23.8968C38.5168 26.8017 38.4029 27.1894 36.17 28.1607C32.7225 29.6363 31.6571 31.2105 32.2139 33.5764C32.6676 35.5041 32.3161 35.7536 28.3884 36.4963C25.9336 36.9604 22.9721 37.8865 21.7211 38.6722C19.4519 39.9249 18.0468 39.1839 19.7632 37.761C20.1922 37.4053 21.5787 34.5805 22.9239 31.5805C24.6726 27.6804 26.2653 25.7319 28.3794 24.6915C30.6898 23.614 30.845 23.4016 29.1551 23.6296C27.858 23.7833 26.8142 23.7061 26.7523 23.4432C26.3399 21.6907 29.6243 16.0359 31.5833 15.2079C32.7979 14.7037 33.7337 13.8861 33.6306 13.448C33.5275 13.0099 32.8195 13.0522 32.0958 13.4636C31.3928 13.9626 30.7054 14.0926 30.6436 13.8297C30.6023 13.6545 30.8978 11.8596 31.2916 10.0462C32.5818 3.76177 31.5733 5.14225 29.2747 12.8072C27.1833 19.6093 25.3373 21.7888 24.5537 18.4591C24.3887 17.7581 23.831 17.1313 23.2576 16.8737C22.6065 16.7222 22.9522 17.7551 23.8762 19.5024C25.2391 21.8073 25.3108 22.9836 24.4311 25.3465C23.132 28.9785 22.3671 29.2146 20.9011 26.4716C20.2196 25.3191 19.3054 24.4852 18.8144 24.578C18.3235 24.6709 18.8655 25.6667 19.9604 26.8325C20.9777 28.1045 22.0156 29.4642 22.1393 29.9899C22.4074 31.129 18.2844 39.322 17.3025 39.5076C16.9097 39.5819 15.6754 38.2594 14.555 36.5492C13.4552 34.9267 12.1954 33.0599 11.7565 32.5022C11.2969 31.8569 11.5866 31.3445 12.3152 31.3898C13.1213 31.3289 14.2014 31.1247 14.8682 30.9071C16.2222 30.5596 17.1196 24.3493 15.9472 23.2897C15.4307 22.8382 16.1603 21.1444 17.4996 19.4268C18.994 17.4968 19.7393 15.4339 19.4094 14.0319C18.9969 12.2794 19.3642 11.6608 21.1316 11.3266C22.2893 11.0162 25.0082 9.49536 27.2156 7.97972C29.4023 6.37645 31.4751 5.16081 31.811 5.28036C32.245 5.38134 33.0659 6.6905 33.8298 8.19347ZM10.6606 33.0755C12.763 34.6 11.6711 37.3691 8.52895 37.9632C6.17234 38.4088 4.51974 36.6162 5.02245 33.9585C5.31798 32.1637 8.57895 31.6387 10.6606 33.0755ZM5.75307 39.6779C7.43217 40.2756 7.70325 45.3497 6.08997 47.2106C5.19545 48.2035 4.48748 48.2458 3.22177 47.6614C0.927983 46.6307 0.345665 43.7206 1.93341 41.3153C3.28844 39.2287 3.66058 39.0668 5.75307 39.6779ZM13.3807 38.9678C15.3907 39.2285 16.3707 42.5211 15.052 44.3263C13.5781 46.3439 9.8419 46.5927 8.70088 44.795C6.59952 41.5314 9.14364 38.3961 13.3807 38.9678ZM36.6611 37.2202C40.8107 36.9847 42.1334 37.3753 44.3388 39.3379C46.0277 40.849 47.9444 41.5849 49.7531 41.4259C51.66 41.2484 52.5899 41.7133 52.8786 42.94C53.5385 45.744 55.8215 47.6004 59.4331 48.5649C61.2673 48.9503 62.5536 49.6223 62.4191 49.9223C62.1864 50.2409 58.4197 49.4887 54.1572 48.3727C48.1173 46.6775 46.614 45.955 47.8856 45.2569C48.7074 44.827 49.0747 44.2084 48.7182 44.0012C48.3618 43.794 47.3229 44.1735 46.4441 44.7973C45.2344 45.7582 43.6221 45.88 40.6046 45.2608L36.3263 44.5138L39.4174 42.8311C41.1387 41.8649 42.2709 41.0102 41.9144 40.803C41.558 40.5959 39.8936 41.3682 37.9966 42.4591C35.1431 44.2799 34.3576 44.4284 31.7329 43.7349C29.227 43.1104 28.9688 42.8847 30.4161 42.0619C31.2174 41.5443 31.8379 40.6948 31.7348 40.2567C31.6111 39.7309 30.5928 40.198 29.3055 41.2651C27.5322 42.8818 26.5709 43.155 23.5377 42.9048C19.342 42.5084 18.8412 41.6878 21.674 39.7794C23.5092 38.4256 26.3568 37.8872 36.6611 37.2202ZM29.339 46.2011C31.3844 47.9194 31.5032 47.9884 30.5998 46.3288C28.3747 42.5394 34.5746 44.4789 37.4919 48.595L39.4696 51.3329L38.1999 48.5527C37.5548 47.1188 37.3436 45.7858 37.8346 45.693C39.7209 45.4279 44.0296 47.1758 45.6616 48.8808C47.1541 50.429 47.3711 50.4795 47.16 49.1466C46.9538 48.2703 47.2022 47.5827 47.7344 47.6651C50.256 47.9205 64.2936 52.2221 64.3967 52.6602C64.7267 54.0622 59.4037 54.9771 55.7146 54.1188C51.0386 52.9894 49.5451 53.1802 46.5778 55.3887C44.6856 56.9363 44.174 56.9415 41.0486 55.4274C38.6153 54.2401 36.8223 54.03 34.8428 54.7704C32.4498 55.4974 31.5612 55.2078 28.8186 52.7061C27.0109 51.1259 25.0893 49.9333 24.6965 50.0076C23.6164 50.2118 18.6478 45.6599 18.2972 44.1703C17.8642 42.3302 26.8547 43.9251 29.339 46.2011ZM24.1771 54.7735C24.4806 57.3703 25.0894 59.0857 25.8592 59.3062C26.6497 59.6143 26.5819 60.6339 25.6197 62.6463C24.4041 64.8897 24.3982 66.1721 25.4666 68.5328C26.7362 71.313 26.2483 75.3407 24.4808 75.6749C24.1862 75.7306 23.0972 73.2823 22.1585 70.165C20.9104 65.7333 20.8181 64.4694 21.8982 64.2652C22.9783 64.061 22.8958 63.7105 21.3306 62.7251C20.1219 61.9469 18.9396 59.9739 18.4859 58.0462C17.826 55.2422 17.9399 54.8545 19.4433 55.5771C22.2123 56.8839 22.0424 55.7263 19.2066 53.6998L16.4896 51.7424L14.896 55.4301C13.5144 58.7116 13.4369 58.8178 15.0502 56.9568L16.7204 54.9021L17.6071 58.6699C18.1639 61.0358 17.9715 63.2687 17.2576 64.5935C16.1353 66.3616 16.1559 66.4492 17.2262 65.3316C18.9583 63.5398 20.0944 64.8808 21.4142 70.4888L22.3421 74.4319L19.1293 72.1106C17.1664 70.7428 15.4519 68.6874 14.9 66.7782C14.3688 64.9567 13.052 63.2837 11.9257 62.856C10.009 62.1201 9.94715 61.8572 11.0439 59.5448C11.639 58.151 11.8314 55.918 11.5014 54.516C11.089 52.7636 11.6634 51.2821 13.3179 49.5964L15.81 47.1117L16.6771 49.0528C17.3222 50.4867 17.498 50.3619 17.1013 48.2404L16.6015 45.6807L20.1502 48.1215C23.3424 50.3552 23.8432 51.1757 24.1771 54.7735Z" fill="black"/>
</svg>
