<svg width="43" height="58" viewBox="0 0 43 58" fill="none" xmlns="http://www.w3.org/2000/svg">
<path d="M19.6943 25.2763C19.4607 25.3035 19.1959 25.3493 19.0696 25.5477C18.9761 25.6946 18.9885 25.8824 19.0042 26.0558C19.8301 35.1905 20.6561 44.3252 21.482 53.46C22.3583 53.4066 23.2237 53.1814 24.0148 52.8008C24.45 52.5915 23.7392 45.5158 23.7178 44.7156C23.642 41.8849 23.5957 39.0533 23.5791 36.2215C23.5628 33.4572 23.5745 30.6927 23.6149 27.9287C23.6649 24.5067 22.8169 24.9125 19.6943 25.2763Z" fill="url(#paint0_linear_548_8041)"/>
<path d="M8.51566 13.1197C8.06175 12.3655 7.73497 11.4883 7.85266 10.6159C7.9704 9.74357 8.63517 8.9055 9.51053 8.81286C10.1875 8.74128 10.8498 9.11703 11.2955 9.63148C11.7413 10.1459 12.0095 10.7866 12.2704 11.4154C13.2325 13.7341 14.3909 16.0684 15.2972 18.3582C13.103 18.5075 9.55005 14.8383 8.51566 13.1197Z" fill="url(#paint1_linear_548_8041)"/>
<path d="M17.3267 4.69517C17.093 4.28187 16.8367 3.86172 16.4462 3.59153C15.573 2.9873 14.3874 3.32611 13.388 3.68505C12.9993 3.82464 12.6107 3.96422 12.2221 4.1038C11.1466 4.49008 10.0441 4.89181 9.18097 5.6406C10.2388 6.7639 11.8728 7.1025 13.1741 7.93154C14.133 8.54247 14.8955 9.41046 15.6441 10.2663C16.2238 10.9291 16.8041 11.5926 17.3326 12.2969C18.7285 14.1 19.7678 16.2842 20.3002 18.4994C21.3786 13.8808 19.6529 8.807 17.3267 4.69517Z" fill="url(#paint2_linear_548_8041)"/>
<path d="M24.5193 12.1168C25.0935 10.6357 25.8199 9.21465 26.6676 7.87127C27.7819 6.10551 29.1069 4.47285 30.6056 3.01904C30.9149 3.89072 31.105 4.80456 31.169 5.72728C31.7325 5.58064 32.3728 5.79201 32.7384 6.2452C33.104 6.69838 33.175 7.36901 32.9124 7.8887C33.3663 8.16921 33.8202 8.44977 34.274 8.73029C33.7098 9.08321 32.9979 9.04586 32.3368 9.12175C30.5551 9.32622 28.9804 10.4265 27.7928 11.7705C26.9226 12.7553 25.5436 16.2855 24.3668 16.6369C22.1826 17.289 24.1979 12.9459 24.5193 12.1168Z" fill="url(#paint3_linear_548_8041)"/>
<path d="M27.0828 20.403C27.4772 20.4735 27.8539 20.2354 28.184 20.0082C29.561 19.0602 30.938 18.1124 32.3152 17.1644C33.3855 16.4276 34.9938 15.3018 34.9792 13.8176C34.965 12.3659 33.873 11.6813 32.7087 12.3881C31.6921 13.0052 30.847 15.3248 30.1915 16.2809C29.8107 16.8366 27.589 20.4936 27.0828 20.403Z" fill="#FF5539"/>
<path d="M9.14874 26.4603C10.3162 26.1496 11.4996 25.8985 12.6927 25.7083C12.3543 26.7157 12.2511 27.8014 12.3936 28.8545C12.1713 27.2111 17.3792 25.212 15.2708 23.7852C13.6742 22.7047 10.2055 25.4305 9.14874 26.4603Z" fill="url(#paint4_linear_548_8041)"/>
<path d="M36.9478 21.4388C35.5427 21.5045 34.1529 21.8812 32.907 22.5341C33.0695 23.2915 33.1733 24.0615 33.2172 24.8349C33.1565 23.7655 26.1977 24.0669 28.5926 21.5489C30.2329 19.8241 35.0247 20.8349 36.9478 21.4388Z" fill="url(#paint5_linear_548_8041)"/>
<path d="M33.4539 54.5293C32.4276 54.6405 31.403 54.7729 30.3744 54.8576C29.0821 54.9641 27.7847 55.0124 26.4935 55.1298C26.1748 55.1587 25.8745 55.3659 25.5599 55.4744C25.4275 55.52 25.2643 55.5732 25.1418 55.5358C24.0528 55.2032 23.0087 55.4639 21.9638 55.7456C21.8814 55.7678 21.7936 55.8239 21.7182 55.8101C20.0008 55.4969 18.3682 56.0853 16.7009 56.2862C14.8026 56.5149 12.9108 56.7967 11.0153 57.0494C10.3487 57.1383 9.32158 56.4266 9.14351 55.7665C8.78379 54.4325 8.36624 53.1109 8.07878 51.7616C7.64509 49.726 7.28817 47.6735 6.92514 45.6235C6.59639 43.7669 6.36313 41.8913 5.974 40.0481C5.69816 38.7412 5.22458 37.4767 4.85688 36.1883C4.73068 35.7461 4.67435 35.2839 4.54654 34.8423C4.52169 34.7565 4.24958 34.6407 4.19974 34.6791C3.56246 35.1702 2.97872 34.7176 2.37957 34.598C2.32604 34.5873 2.26255 34.5218 2.2418 34.4672C1.82612 33.3725 1.32739 32.2991 1.03079 31.1726C0.754327 30.1226 0.708578 29.0134 0.534399 27.9346C0.377389 26.9623 0.131006 26.0016 0.0252955 25.0248C-0.0442621 24.3821 0.0444359 23.7176 0.113215 23.0684C0.127376 22.9346 0.351298 22.7517 0.506493 22.7173C0.998895 22.608 1.50416 22.4984 2.00507 22.4954C4.56775 22.4801 7.13075 22.5169 9.69328 22.4942C10.5903 22.4863 11.4865 22.2983 12.3827 22.3012C14.5409 22.3083 16.6236 21.3151 18.8164 21.8312C18.8855 21.8475 18.9693 21.801 19.0463 21.7838C18.9861 21.7293 18.9346 21.6568 18.8645 21.6229C17.185 20.8111 15.4799 20.0476 13.8327 19.1752C13.0762 18.7745 12.3766 18.2209 11.7483 17.633C10.1639 16.1505 8.58472 14.6557 7.10668 13.0696C6.47615 12.393 6.12862 11.4594 5.60531 10.6741C5.12442 9.95234 5.24284 9.2424 5.58549 8.55362C6.45857 6.79875 7.39332 5.11059 9.07167 3.92329C10.068 3.21848 10.8183 2.16417 11.819 1.46777C12.6821 0.867062 13.7251 0.504284 14.7216 0.122469C15.5319 -0.188024 16.2962 0.115259 16.7888 0.768198C17.7779 2.07926 18.7059 3.43893 19.6098 4.8111C21.0836 7.04825 21.83 9.59158 22.5442 12.1345C22.7797 12.973 22.8182 13.8666 22.9527 14.7341C22.9677 14.8309 23.021 14.9218 23.0565 15.0155C23.1018 14.9272 23.1581 14.8429 23.1906 14.7502C23.6394 13.4682 23.9506 12.1154 24.569 10.9217C25.1954 9.7127 25.3891 8.3492 26.1973 7.201C27.3551 5.556 28.316 3.77359 29.4057 2.07859C29.7199 1.58992 30.178 1.19063 30.5875 0.767213C31.0732 0.26506 31.6138 0.478816 32.1094 0.730281C33.1672 1.26693 34.0007 2.02625 34.6202 3.07459C35.2885 4.20557 36.1455 5.22383 36.8383 6.34199C38.14 8.44318 39.2489 10.647 39.7744 13.0818C39.981 14.0391 39.6616 14.9042 38.8356 15.5285C37.7838 16.3235 36.7772 17.1839 35.6853 17.9182C34.7043 18.5779 33.6335 19.1038 32.6056 19.6943C32.5243 19.7409 32.4685 19.8317 32.4009 19.902C32.4851 19.9107 32.5706 19.9337 32.6532 19.926C34.3879 19.7651 36.0609 20.1442 37.7445 20.472C38.2972 20.5797 38.8796 20.5274 39.446 20.5757C39.6771 20.5954 39.9191 20.6546 40.1233 20.7597C40.2587 20.8294 40.4402 21.0393 40.4146 21.1385C40.3749 21.2929 40.1993 21.4743 40.0422 21.5268C38.8373 21.9284 37.6169 22.2839 36.415 22.6937C36.0148 22.8302 35.6545 23.0834 35.276 23.2833C35.7127 23.3517 36.1475 23.461 36.5864 23.4815C38.4241 23.5672 40.2647 23.5997 42.1009 23.7091C42.7719 23.7491 43.0089 24.2402 42.9684 24.9347C42.9122 25.8972 42.8402 26.876 42.9517 27.8272C43.1542 29.556 42.6723 31.1888 42.3926 32.8488C42.3591 33.0475 41.9281 33.2895 41.6609 33.3176C40.9195 33.3955 40.1671 33.3888 39.4195 33.3807C38.9568 33.3757 38.8181 33.5999 38.7817 34.0199C38.5615 36.5595 38.3549 39.101 38.0826 41.6353C37.9206 43.1434 37.6296 44.6372 37.4293 46.1418C37.3047 47.0778 37.2651 48.025 37.1443 48.9616C36.9933 50.1332 36.787 51.2976 36.63 52.4685C36.5928 52.7455 36.6551 53.0361 36.6748 53.3203C36.7305 54.1199 36.5129 54.3986 35.7008 54.4785C34.9573 54.5516 34.2099 54.5852 33.4642 54.6362C33.4609 54.6006 33.4574 54.5649 33.4539 54.5293ZM37.1904 15.3524C38.0825 14.8614 38.9117 14.3044 38.8349 13.1232C38.8086 12.7175 38.6488 12.3155 38.5184 11.9223C37.8027 9.76556 36.8695 7.71721 35.5241 5.86883C34.8924 5.00089 34.2703 4.12237 33.7056 3.21039C33.2553 2.48323 32.7545 1.82889 31.9697 1.46185C31.7986 1.38187 31.4559 1.38358 31.35 1.49609C30.7048 2.18145 30.0186 2.85368 29.511 3.63707C28.7843 4.7586 28.3042 6.04695 27.5308 7.12973C26.0972 9.13689 25.3091 11.4471 24.5294 13.7058C23.8823 15.5804 23.866 17.6732 23.5768 19.6703C23.5598 19.7875 23.601 19.9131 23.6151 20.0347C23.6802 19.9295 23.7632 19.8312 23.8076 19.7178C24.2938 18.4778 24.9351 17.3562 25.9431 16.4397C26.7314 15.7231 27.5319 14.9744 28.1291 14.1042C28.9704 12.8782 29.966 11.9587 31.2952 11.2504C32.5297 10.5926 33.732 10.0272 35.1375 10.1298C35.6488 10.1671 36.3965 10.2831 36.5943 10.6216C37.0334 11.3727 37.3145 12.2712 37.4286 13.1401C37.5225 13.8553 37.2834 14.6143 37.1918 15.3538C37.0546 15.2323 36.8124 15.1219 36.7983 14.9875C36.7349 14.3829 36.685 13.7682 36.7243 13.1632C36.826 11.5939 35.9321 10.7172 34.4149 10.9527C34.3497 10.9628 34.2677 10.9509 34.2221 10.9862C33.9997 11.1577 33.7219 11.3018 33.583 11.5287C33.1145 12.2942 32.757 13.1325 32.2473 13.8669C31.0226 15.6315 29.3457 17.0459 28.3037 18.9634C27.9836 19.5527 27.4979 20.052 27.0889 20.5931C27.0389 20.6592 26.9943 20.7294 26.9472 20.7977C27.045 20.8137 27.1548 20.8672 27.2387 20.8402C28.3417 20.4848 29.4699 20.1862 30.5324 19.7337C31.4555 19.3405 32.2952 18.7549 33.1889 18.287C33.4585 18.1458 33.8455 18.1922 34.0744 18.0166C34.8315 17.4356 35.5428 16.7946 36.2681 16.1723C36.5801 15.9045 36.8831 15.626 37.1904 15.3524ZM19.8261 35.6297C19.8344 35.6281 19.8428 35.6265 19.8511 35.6249C19.8511 34.9004 19.8489 34.1759 19.852 33.4514C19.8537 33.0566 19.6742 32.9264 19.2757 32.9441C17.4159 33.0268 15.5506 33.0252 13.6954 33.1636C11.1992 33.3499 8.70801 33.6145 6.22002 33.893C5.33849 33.9916 5.34098 34.0565 5.56822 34.9444C6.18418 37.3517 6.88167 39.7413 7.40322 42.1688C8.03759 45.1215 8.48948 48.1129 9.09102 51.0733C9.40105 52.5991 9.85107 54.0975 10.2791 55.5965C10.3212 55.744 10.666 55.9159 10.849 55.8944C12.0353 55.7553 13.2139 55.5521 14.3984 55.3955C16.3573 55.1366 18.3187 54.8953 20.2795 54.6499C21.1293 54.5435 21.3041 54.3137 21.169 53.4796C21.0533 52.7653 20.8977 52.053 20.8453 51.3335C20.6409 48.5314 20.4687 45.727 20.2881 42.9232C20.1315 40.4922 19.9799 38.0609 19.8261 35.6297ZM25.8502 51.599C25.8519 51.599 25.8536 51.599 25.8553 51.599C25.8553 52.215 25.8143 52.8354 25.8786 53.4447C25.8996 53.6434 26.1853 53.9587 26.3663 53.9706C27.0855 54.0176 27.8134 53.9965 28.534 53.9444C30.1949 53.8243 31.8527 53.6619 33.5133 53.537C34.0813 53.4942 34.6555 53.5351 35.2239 53.4949C35.7025 53.4611 35.9477 53.2561 35.7305 52.7072C35.6335 52.4622 35.6582 52.1469 35.6979 51.8737C35.8608 50.7521 36.0701 49.6372 36.2267 48.5149C36.4966 46.5791 36.7558 44.6414 36.9879 42.7008C37.1077 41.6996 37.1451 40.6889 37.245 39.685C37.4337 37.7888 37.628 35.8929 37.8492 34.0003C37.9028 33.5417 37.7135 33.4023 37.3172 33.3902C36.5477 33.3669 35.7784 33.3401 35.0088 33.322C33.2749 33.2809 31.5406 33.2517 29.807 33.2031C28.7535 33.1735 27.7007 33.1175 26.6477 33.0719C26.1812 33.0517 25.9837 33.2517 25.977 33.7383C25.9519 35.5836 25.8654 37.4284 25.8566 39.2735C25.837 43.3819 25.8503 47.4905 25.8502 51.599ZM22.0673 15.2256C22.0804 15.2246 22.0936 15.2236 22.1067 15.2226C22.1067 14.9807 22.1458 14.7314 22.1008 14.4982C21.6007 11.9056 20.871 9.38151 19.7258 6.99555C19.3461 6.20448 18.9074 5.43483 18.4261 4.70098C17.6235 3.477 16.7756 2.28207 15.9238 1.09135C15.6354 0.688163 15.1876 0.580948 14.741 0.782203C14.0624 1.08792 13.3412 1.36086 12.7604 1.80695C11.9459 2.4325 11.301 3.28052 10.481 3.89689C8.95336 5.04524 7.7992 6.43935 6.94589 8.15811C6.40991 9.23768 6.27593 10.1628 6.99625 11.1694C7.36619 11.6862 7.63679 12.2742 8.00606 12.7916C9.14289 14.3849 10.6874 15.5736 12.1242 16.8675C13.5231 18.1272 15.058 19.1659 16.8106 19.8949C18.0822 20.4238 19.3048 21.0703 20.5515 21.6599C20.6219 21.6932 20.7117 21.6852 20.7925 21.6965C20.7638 21.6022 20.7633 21.4801 20.7019 21.4182C20.2078 20.9188 19.6596 20.4666 19.208 19.9324C17.8198 18.2902 16.3564 16.7071 15.3183 14.7922C14.4618 13.2122 13.2593 11.7892 13.2223 9.86157C13.2204 9.76467 13.1533 9.63303 13.0745 9.57929C12.4418 9.14789 11.8508 8.57545 11.1487 8.34183C9.57605 7.81851 8.31847 8.75736 8.74245 10.5162C8.8713 11.0509 9.04662 11.5747 9.16566 12.1112C9.20684 12.297 9.1419 12.5064 9.12541 12.7049C8.94506 12.6041 8.66454 12.5455 8.60126 12.3954C8.27983 11.6327 7.89422 10.8668 7.75724 10.0635C7.53337 8.75077 8.36915 7.66316 9.70552 7.51948C10.3765 7.44733 11.1152 7.57779 11.7621 7.79709C13.1568 8.26994 14.1413 9.36185 15.1618 10.3543C16.5285 11.6837 18.0072 12.953 19.1086 14.4849C20.2762 16.109 21.0553 18.0119 22.0134 19.7881C22.0996 19.9479 22.254 20.0709 22.3768 20.2111C22.4092 20.0317 22.4825 19.849 22.4678 19.6736C22.3434 18.1902 22.2029 16.7081 22.0673 15.2256ZM15.3221 32.0715C15.3281 32.1375 15.334 32.2035 15.3399 32.2695C16.6668 32.1304 17.9931 31.9858 19.3209 31.8552C19.7474 31.8133 19.8026 31.5557 19.7664 31.2069C19.6267 29.8639 19.4852 28.521 19.3587 27.1767C19.3022 26.5762 19.2685 25.9728 19.2451 25.37C19.224 24.826 19.004 24.6505 18.5778 25.0386C17.5247 25.9976 16.4534 26.9433 15.4749 27.9753C14.661 28.8338 13.9758 29.8135 13.215 30.724C13.0935 30.8695 12.8341 31.0497 12.7109 31.0066C12.5515 30.9508 12.4364 30.6989 12.3564 30.5087C12.3007 30.3761 12.3172 30.2032 12.3336 30.0518C12.4226 29.2247 12.5266 28.3992 12.6139 27.5718C12.6379 27.3446 12.6224 27.1132 12.6251 26.8838C12.4288 26.966 12.2298 27.0422 12.037 27.1318C11.6783 27.2984 11.3173 27.4618 10.9676 27.6461C10.1175 28.0941 9.2792 28.5649 8.42267 29C8.20674 29.1096 7.94008 29.1194 7.6967 29.175C7.6744 28.8764 7.52216 28.4912 7.65308 28.2944C8.13749 27.5666 8.66304 26.8502 9.27028 26.2238C10.198 25.2667 11.2085 24.3901 12.1769 23.472C12.2572 23.3959 12.285 23.2644 12.3372 23.1586C12.2304 23.1461 12.1226 23.117 12.0169 23.1237C11.2758 23.1703 10.5229 23.3359 9.79671 23.2558C7.17443 22.9667 4.5842 23.4746 1.97654 23.4841C1.71397 23.485 1.43616 23.4935 1.19444 23.5798C1.02467 23.6404 0.782649 23.8387 0.782026 23.9764C0.77881 24.7188 0.770978 25.4733 0.894376 26.2016C1.20186 28.0173 1.57465 29.8221 1.93214 31.629C2.0129 32.0372 2.09625 32.4537 2.25243 32.8361C2.49918 33.4402 2.85931 33.5493 3.45229 33.3121C3.73555 33.1988 4.03386 33.0945 4.33418 33.0574C6.00637 32.8513 7.67808 32.6313 9.35597 32.4844C11.3415 32.3105 13.3331 32.206 15.3221 32.0715ZM26.0944 27.6849C26.0999 27.6849 26.1054 27.6849 26.1109 27.6849C26.1109 28.8505 26.1285 30.0166 26.1021 31.1817C26.0916 31.6464 26.2598 31.8768 26.7152 31.9319C28.041 32.0922 29.3637 32.3806 30.6914 32.4042C34.159 32.4658 37.6286 32.406 41.0973 32.4155C41.4833 32.4166 41.6598 32.3256 41.6981 31.9273C41.8135 30.73 42.0036 29.5376 42.0686 28.3382C42.1242 27.3125 42.013 26.2786 42.0449 25.2504C42.0593 24.7885 41.9238 24.582 41.4826 24.5744C39.7274 24.5443 37.9718 24.4939 36.2169 24.5069C35.6143 24.5114 35.3149 25.0933 35.6445 25.6108C36.0427 26.2362 36.5627 26.7827 36.9913 27.3906C37.133 27.5916 37.1546 27.8772 37.2311 28.1241C36.9909 28.0924 36.6931 28.1406 36.5199 28.0159C35.5058 27.2857 34.5499 26.4718 33.5146 25.775C32.9322 25.3829 32.252 25.1135 31.585 24.8754C30.7833 24.5892 29.9511 24.3862 29.1277 24.1638C28.3668 23.9584 27.6028 23.7625 26.8347 23.5862C26.2986 23.4633 26.0738 23.6921 26.0867 24.2538C26.1129 25.3969 26.0944 26.5411 26.0944 27.6849ZM24.8322 47.9012C24.8671 47.9011 24.902 47.901 24.9369 47.9009C24.9369 46.9356 24.9534 45.97 24.9332 45.0052C24.8999 43.4088 24.7847 41.8119 24.8101 40.2169C24.845 38.0339 24.9707 35.8521 25.0765 33.6708C25.1028 33.129 24.9014 32.9208 24.3567 32.9237C23.5228 32.9281 22.6856 32.9082 21.8555 32.8343C20.716 32.7329 20.5917 32.841 20.7452 34.0071C20.7652 34.1591 20.7799 34.3131 20.7801 34.4661C20.7846 38.4901 21.0563 42.4972 21.4656 46.4994C21.7154 48.9422 21.861 51.3958 22.0441 53.8453C22.0666 54.1455 22.0464 54.4498 22.4674 54.4364C22.9275 54.4216 23.3897 54.4086 23.8459 54.3536C24.4569 54.28 24.8455 53.9947 24.8383 53.2939C24.82 51.4966 24.8322 49.6988 24.8322 47.9012ZM23.1741 31.9418C23.1748 31.9612 23.1756 31.9806 23.1763 32C23.5053 32 23.8346 32.0101 24.1631 31.9981C25.1043 31.9637 25.2752 31.7529 25.2379 30.795C25.2041 29.9259 25.1989 29.0556 25.1907 28.1858C25.179 26.9613 25.1627 25.7366 25.176 24.5122C25.1814 24.0106 25.0003 23.746 24.4843 23.8172C24.0552 23.8764 23.6351 24.0151 23.2053 24.0522C22.228 24.1366 21.246 24.1686 20.2689 24.2555C20.1479 24.2663 19.9397 24.4908 19.9494 24.6006C20.1491 26.8692 20.3805 29.1349 20.5907 31.4026C20.6417 31.9527 21.0955 32.0019 21.4401 32.0285C22.0124 32.0726 22.5955 31.978 23.1741 31.9418ZM34.0378 20.6229C32.4083 20.8801 30.6072 21.1184 28.8271 21.4645C27.9136 21.6421 27.0357 22.007 26.1465 22.3017C26.0355 22.3385 25.9539 22.4639 25.8588 22.5482C25.9763 22.5713 26.0946 22.5917 26.2115 22.6177C27.172 22.8313 28.1368 23.0276 29.0909 23.2669C29.7048 23.4209 30.2908 23.7179 30.9103 23.8111C32.0802 23.9869 33.1023 24.427 33.9886 25.201C34.0879 25.2877 34.1875 25.3794 34.3014 25.4427C34.4236 25.5106 34.563 25.5476 34.6948 25.5981C34.6584 25.4761 34.6316 25.3501 34.5837 25.2327C34.3849 24.7459 34.1246 24.2754 33.999 23.771C33.93 23.4943 33.9757 23.0205 34.1577 22.8811C34.7183 22.4516 35.352 22.1035 35.9926 21.7981C36.3403 21.6323 36.7625 21.6275 37.1453 21.5279C37.2547 21.4995 37.3441 21.3938 37.4426 21.3235C37.3472 21.2801 37.2557 21.2154 37.1556 21.1965C36.1889 21.014 35.2209 20.8393 34.0378 20.6229ZM17.2689 22.8047C17.2641 22.7443 17.2593 22.6839 17.2545 22.6235C16.499 22.74 15.6997 22.7371 14.9966 22.9958C13.0248 23.7215 11.6168 25.2482 10.1322 26.6507C10.0786 26.7012 10.0642 26.7931 10.0315 26.8657C10.1143 26.861 10.207 26.8791 10.2782 26.8478C10.841 26.6013 11.4101 26.366 11.956 26.0859C12.3732 25.8717 12.7385 25.7554 13.1673 26.0819C13.5863 26.4009 13.6374 26.7914 13.5424 27.2517C13.4582 27.6599 13.3658 28.0667 13.2974 28.4776C13.2835 28.5611 13.3608 28.6599 13.3961 28.7516C13.4677 28.7059 13.5537 28.6731 13.6088 28.6124C14.491 27.6404 15.3424 26.6386 16.2552 25.6964C17.414 24.5004 18.6994 23.4822 20.4089 23.1744C20.5536 23.1484 20.6858 23.053 20.8238 22.9898C20.6695 22.9281 20.516 22.8155 20.3608 22.8131C19.3304 22.7971 18.2995 22.8047 17.2689 22.8047ZM14.2429 10.612C14.2866 10.907 14.269 11.0633 14.3322 11.1733C15.2502 12.7743 16.039 14.4743 17.1399 15.9392C18.5732 17.8463 20.2557 19.566 21.8336 21.3641C21.8837 21.4211 21.9625 21.4528 22.028 21.4964C22.0178 21.4167 22.0287 21.3264 21.9944 21.2591C21.5765 20.4403 21.1193 19.6399 20.735 18.8058C19.3503 15.8008 17.3956 13.2358 14.8728 11.1001C14.7224 10.9728 14.5614 10.858 14.2429 10.612ZM24.284 21.883C24.428 21.7227 24.4961 21.6362 24.5749 21.5608C25.19 20.9715 25.8148 20.3921 26.4203 19.7932C26.6994 19.5173 27.0148 19.2419 27.1888 18.9023C28.0423 17.2366 29.2576 15.8496 30.4694 14.4501C31.0416 13.7892 31.5173 13.0443 32.0284 12.3315C32.0824 12.2562 32.08 12.1405 32.1038 12.0436C32.0435 12.0602 31.9814 12.0723 31.923 12.0943C30.9753 12.451 30.2374 13.0463 29.6029 13.8537C28.767 14.9174 27.8724 15.9511 26.8932 16.8821C25.5722 18.138 24.7272 19.6255 24.2887 21.3694C24.254 21.5071 24.284 21.6613 24.284 21.883Z" fill="black"/>
<defs>
<linearGradient id="paint0_linear_548_8041" x1="21.5745" y1="25.0409" x2="21.5745" y2="53.46" gradientUnits="userSpaceOnUse">
<stop stop-color="#F2ADA1" stop-opacity="0.61"/>
<stop offset="0.541667" stop-color="#FF5539"/>
<stop offset="1" stop-color="#FF5539"/>
</linearGradient>
<linearGradient id="paint1_linear_548_8041" x1="11.5628" y1="8.80411" x2="11.5628" y2="18.3626" gradientUnits="userSpaceOnUse">
<stop stop-color="#F2ADA1" stop-opacity="0.61"/>
<stop offset="1" stop-color="#FF5539"/>
</linearGradient>
<linearGradient id="paint2_linear_548_8041" x1="14.905" y1="3.26004" x2="14.905" y2="18.4994" gradientUnits="userSpaceOnUse">
<stop stop-color="#F2ADA1" stop-opacity="0.61"/>
<stop offset="0.463542" stop-color="#FF5539"/>
<stop offset="1" stop-color="#FF5539"/>
</linearGradient>
<linearGradient id="paint3_linear_548_8041" x1="28.8188" y1="3.01904" x2="28.8188" y2="16.7033" gradientUnits="userSpaceOnUse">
<stop stop-color="#F2ADA1" stop-opacity="0.61"/>
<stop offset="0.463542" stop-color="#FF5539"/>
<stop offset="1" stop-color="#FF5539"/>
</linearGradient>
<linearGradient id="paint4_linear_548_8041" x1="12.4616" y1="23.5363" x2="12.4616" y2="28.8545" gradientUnits="userSpaceOnUse">
<stop stop-color="#F2ADA1" stop-opacity="0.61"/>
<stop offset="0.53125" stop-color="#FF5539"/>
<stop offset="1" stop-color="#FF5539"/>
</linearGradient>
<linearGradient id="paint5_linear_548_8041" x1="32.5195" y1="20.5903" x2="32.5195" y2="24.8349" gradientUnits="userSpaceOnUse">
<stop stop-color="#F2ADA1" stop-opacity="0.61"/>
<stop offset="0.53125" stop-color="#FF5539"/>
<stop offset="1" stop-color="#FF5539"/>
</linearGradient>
</defs>
</svg>
