<svg width="43" height="116" viewBox="0 0 43 116" fill="none" xmlns="http://www.w3.org/2000/svg">
<path d="M35.1054 4.73335C26.5867 10.3965 16.9605 18.3418 10.4863 24.9347L5.80103 29.7526L15.0012 23.6668C20.1124 20.2858 26.4163 16.4822 29.0571 15.0453C34.7646 12.087 35.1905 12.5941 33.0609 19.6096C25.2237 44.7134 23.7755 75.8184 29.3126 102.021C30.3349 106.754 31.8683 111.741 32.7201 113.178C34.1683 115.545 34.6794 115.798 38.6832 115.798C43.7093 115.798 43.7093 116.897 39.024 104.895C28.4608 77.9315 28.8867 43.7836 40.1314 9.80482C41.9203 4.39526 43.1129 -1.52588e-05 42.7722 -1.52588e-05C42.5166 -1.52588e-05 39.024 2.1131 35.1054 4.73335Z" fill="black"/>
<path d="M20.0272 25.3572C13.1271 29.5834 0.0934772 38.9656 0.434225 39.3882C0.604599 39.5573 3.2454 38.9656 6.31213 38.0359C11.5937 36.4299 15.5975 35.9227 15.5975 36.768C15.5975 37.0216 14.6605 41.924 13.4678 47.6716C9.54924 67.0277 7.33437 93.7374 8.52699 107.768L9.20849 115.376L17.1309 115.629C21.731 115.798 24.9681 115.545 24.9681 115.038C24.9681 114.615 24.2014 111.065 23.3495 107.177C19.9421 92.8077 19.0902 76.2409 20.7939 57.2229C21.5606 48.0943 24.7125 28.9917 26.3311 23.8358C27.0978 21.3 26.3311 21.4691 20.0272 25.3572Z" fill="black"/>
</svg>
