<svg width="82" height="121" viewBox="0 0 82 121" fill="none" xmlns="http://www.w3.org/2000/svg">
<path d="M35.242 1.85292C23.5913 5.10212 16.4421 13.269 16.4421 23.3679C16.4421 27.4074 18.2956 33.9058 19.443 33.9058C19.7078 33.9058 20.3256 32.3251 20.8552 30.3053C21.3848 28.3734 23.15 25.2998 24.7388 23.5435C27.4749 20.6456 28.181 20.3821 33.3002 20.0309C38.5077 19.6796 39.1256 19.8552 41.1556 22.0506C47.0692 28.2856 41.5086 38.8235 25.7096 51.1178L22.2674 53.9279L26.6805 56.1233C31.2702 58.4943 33.8298 60.6897 32.5941 61.3923C32.2411 61.6557 29.5932 62.2704 26.7688 62.9729C23.9444 63.5877 21.473 64.378 21.2965 64.6415C21.0317 64.9927 23.5031 65.5196 26.6805 65.7831C30.6523 66.0465 34.1828 67.1003 38.0664 68.9444C47.7753 73.6865 51.041 80.2727 47.4222 87.7371C44.8626 93.0061 40.4495 95.3771 33.1237 95.3771C23.9444 95.3771 18.5604 91.5132 17.5895 84.1366C17.1482 81.1509 17.413 80.2727 19.3547 78.3408C22.2674 75.4428 27.0336 75.2672 30.6523 77.9017C34.0063 80.2727 34.1828 78.253 31.0054 74.4769C26.0627 68.5932 13.0881 69.3835 5.49751 75.9697C0.378285 80.4484 -1.47523 90.1081 1.26091 98.5385C4.17358 107.759 9.9989 113.467 20.8552 117.858C29.4167 121.283 43.7152 121.81 52.718 119.087C61.2795 116.541 66.9283 113.467 71.0766 108.989C81.4916 97.7481 84.316 83.4341 78.6672 70.9642C75.931 64.8171 68.0757 56.8258 61.0147 52.7863C58.6316 51.3812 56.425 50.1518 56.3368 50.064C56.1602 49.9762 58.4551 47.4295 61.456 44.4437C64.4569 41.458 67.7226 37.155 68.7818 34.8718C70.9001 30.1297 71.2531 21.9628 69.4879 16.8695C67.8109 12.0396 61.3677 5.45338 56.2485 3.25798C50.5114 0.799126 41.1556 0.18441 35.242 1.85292ZM53.1593 11.6005C57.9255 14.4984 60.5734 18.8892 61.2795 24.7729C62.1621 32.6764 56.6015 40.8433 45.5687 47.8686L40.1847 51.2056L47.8635 55.5086C61.7208 63.2364 68.2522 71.1398 69.1348 81.1509C70.0174 91.3376 63.3095 101.612 52.1001 107.232C45.4805 110.481 34.1828 111.36 27.1218 108.989C16.7951 105.652 9.38107 97.4847 9.38107 89.5812C9.38107 84.0488 10.705 83.4341 11.9407 88.3518C13.2646 93.533 16.8834 97.4847 22.6205 100.119C28.0045 102.578 40.1847 102.666 44.6861 100.295C50.9527 96.9578 55.4541 91.1619 56.425 85.1026C56.9546 81.7656 53.8654 74.8281 50.5114 71.7546C46.8927 68.4175 47.5105 67.2759 52.8945 67.2759L57.4842 67.1881L53.9537 64.1146C52.0119 62.4461 46.3631 59.0212 41.3321 56.5624C36.3894 54.1035 32.4176 51.8203 32.5059 51.469C32.6824 51.1178 35.5068 48.5711 38.7725 45.761C46.3631 39.4382 51.4823 33.0276 52.2767 28.9881C53.071 24.5973 50.6879 19.0649 46.9809 16.5182C40.626 12.2152 30.0345 13.269 23.5031 18.7136C20.5904 21.0846 20.1491 20.2943 22.1791 16.3426C23.4148 13.8837 28.181 10.898 33.212 9.22948C34.4476 8.79039 38.5077 8.61476 42.2147 8.79039C47.9518 8.96603 49.7171 9.40511 53.1593 11.6005Z" fill="black"/>
</svg>
