<svg width="80" height="118" viewBox="0 0 80 118" fill="none" xmlns="http://www.w3.org/2000/svg">
<path d="M27.9695 2.32545C15.651 6.86546 8.53756 16.2024 8.36406 28.1092C8.27731 37.1892 12.7883 45.3269 19.2945 47.7254C25.2803 49.9526 32.5672 48.0681 34.5625 43.785C36.0372 40.53 35.6902 39.6733 33.6082 41.5579C29.4443 45.3269 25.1068 45.0699 22.938 40.8726C20.509 36.3326 23.8923 28.7945 29.6178 25.882C35.8637 22.7126 44.7122 27.0813 46.7942 34.5337C47.8352 38.1315 47.7485 38.6454 45.4062 43.2711C41.9362 50.1239 37.5987 52.9507 29.878 53.5503C23.632 54.0643 23.7188 54.8352 30.1382 56.4628C32.1335 56.9767 33.7817 57.7477 33.7817 58.0903C33.7817 58.433 30.7455 61.0028 27.0153 63.8296C12.4413 74.9654 6.54231 82.5892 2.55182 95.3525C0.209579 102.976 -0.918168 116.853 0.903577 116.082C13.3955 110.6 18.1668 109.144 24.673 108.801C30.572 108.459 32.5672 108.801 37.9457 110.686C41.329 111.885 47.0545 113.941 50.5244 115.14C66.2262 120.708 75.6819 117.624 78.9784 105.803C80.0194 101.948 79.6724 90.1273 78.6314 92.7827C78.1976 93.725 77.2434 95.9522 76.5494 97.751C75.7686 99.4642 73.5131 102.462 71.4311 104.261C64.9249 110.257 57.2042 109.915 42.023 102.805C33.7817 99.0359 32.9142 98.779 25.1068 98.6076L16.8655 98.3507L17.1258 95.1812C17.9065 86.1869 26.061 75.308 41.8495 62.459C52.9534 53.379 53.7342 52.1798 48.3557 52.0941C45.493 52.0941 45.3195 51.2375 47.7485 49.0103C50.7847 46.3549 52.8667 41.3009 52.8667 36.8466C52.8667 31.7069 49.4834 24.5971 45.5797 21.6847C40.3747 17.7443 31.96 17.316 25.5405 20.5711C21.0295 22.8839 18.5138 26.5673 17.386 32.6492L16.692 36.2469L15.651 33.6771C13.3955 28.1949 17.039 19.1149 23.1115 15.0888C28.49 11.5768 32.0467 10.5488 38.553 10.6345C54.0812 10.9771 65.6189 21.4277 66.5732 36.2469C66.9202 40.8726 66.5732 41.9862 63.5369 47.8111C60.7609 53.2077 59.0259 55.1779 52.4329 60.6601C38.9867 71.7103 34.042 77.1069 30.572 84.3024C28.837 87.8144 27.796 91.0695 28.2298 91.4122C28.6635 91.7548 31.0057 92.5258 33.348 93.1254C35.777 93.6393 40.8085 95.5239 44.6255 97.2371C53.7342 101.177 59.5464 102.377 64.0574 101.092C68.8286 99.6356 72.4721 95.2669 73.6866 89.3563C74.9879 83.2744 74.3806 81.6469 72.3854 85.7586C70.4769 89.7846 66.8334 92.8684 62.3224 94.1533C59.4597 95.0099 58.1584 95.0099 54.7752 93.8107C50.1774 92.2688 36.124 87.0435 35.6035 86.6152C34.9095 86.1012 38.206 80.105 40.8952 76.6786C42.37 74.8797 47.4015 70.3397 52.1727 66.5707C61.9754 58.6899 66.7467 53.2077 70.5636 45.2413C72.8191 40.4443 73.2529 38.6454 73.2529 32.7349C73.2529 26.4817 72.9926 25.2824 70.0431 19.3719C66.1394 11.7481 61.8019 7.55074 53.9944 3.86734C46.534 0.440933 34.9095 -0.244354 27.9695 2.32545Z" fill="black"/>
</svg>
