<svg width="553" height="743" viewBox="0 0 553 743" fill="none" xmlns="http://www.w3.org/2000/svg">
<g clip-path="url(#clip0_126_4401)">
<path d="M77.486 307.969C78.0089 309.658 79.3815 311.495 81.0882 312.9C84.8993 315.888 88.1111 316.057 92.3897 313.543L95.6205 311.645L104.215 313.878C110.887 315.538 116.16 316.316 127.911 317.223C140.581 318.296 144.432 318.853 150.842 320.666L158.551 322.891L152.605 327.265C140.4 336.079 131.494 345.011 125.327 354.506C120.43 361.964 119.655 364.944 121.885 368.039C122.793 369.385 124.397 370.616 125.506 370.904C128.694 371.732 130.636 370.239 133.836 364.19C140.073 352.715 151.393 341.895 166.972 332.626L175.442 327.65L180.155 328.874C185.007 330.135 202.948 335.98 209.283 338.366L212.849 339.737L190.724 352.558C167.969 365.808 157.76 372.921 145.361 383.905C136.605 391.692 135.651 393.368 137.806 397.035C139.568 399.934 142.233 401.071 145.091 400.038C145.998 399.681 150.616 396.146 155.203 392.159C168.632 380.629 180.906 371.833 195.54 363.354C207.921 356.139 225.392 346.991 229.347 345.725C230.967 345.184 234.553 346.19 262.867 355.396L270.851 357.989L264.546 365.451C256.012 375.515 251.039 379.846 241.856 385.006C234.906 388.971 221.041 395.061 217.038 395.944C216.168 396.162 212.291 396.56 208.519 396.838C198.665 397.459 188.186 399.915 183.54 402.703C180.152 404.634 181.487 410.604 185.507 411.649C187.864 412.261 198.594 410.832 207.055 408.739C210.693 407.835 215.718 407.291 218.791 407.423C228.55 407.739 248.009 410.872 260.416 414.096C271.783 417.049 283.245 421.063 283.963 422.285C284.271 422.809 276.494 427.965 254.499 441.708L246.271 446.895L241.568 444.489C231.214 439.062 220.414 436.773 188.469 433.282C168.983 431.105 152.864 427.36 145.451 423.141C141.201 420.705 140.716 420.579 138.851 421.204C134.722 422.573 133.815 428.626 137.349 431.541C144.209 437.319 160.705 441.605 186.389 444.135C207.752 446.209 221.854 448.319 229.752 450.667L236.214 452.568L230.369 455.415C227.159 456.948 219.793 460.805 214.015 463.965L203.506 469.669L183.855 464.711C173.024 461.97 158.592 457.999 151.733 455.92L139.28 452.019L137.079 453.371C133.149 455.679 132.905 461.461 136.65 464.135C137.512 464.803 148.946 468.07 163.709 471.906L189.267 478.62L172.25 489.44C162.919 495.45 148.768 504.35 140.906 509.262L126.529 518.178L122.928 516.946C118.582 515.447 115.275 516.216 112.587 519.439C110.34 522.11 109.871 523.912 110.483 527.252C111.513 532.403 116.918 535.805 122.539 534.676C126.28 533.946 128.047 532.556 129.294 529.18C130.433 526.221 131.237 525.69 163.388 506.743L196.239 487.386L193.485 499.692C191.964 506.4 190.867 512.33 190.985 512.73C191.103 513.131 190.613 517.295 189.771 521.959C187.915 533.092 188.065 535.647 190.563 539.699C192.274 542.511 193.067 543.161 195.131 543.475C196.9 543.787 198.241 543.469 199.466 542.456C201.32 541.014 201.338 540.945 201.391 533.338C201.545 524.204 202.279 517.958 205.055 503.29C206.169 497.291 207.421 489.626 207.921 486.279L208.759 480.208L217.226 475.527C221.869 473.034 229.045 469.054 233.164 466.869L240.722 462.84L239.477 467.917C238.738 470.759 237.806 475.769 237.307 479.117C236.876 482.482 232.568 501.339 227.662 521.076C219.378 554.954 218.889 557.121 219.776 558.831C221.056 561.309 224.396 562.695 227.372 562.062C231.462 561.128 232.246 558.964 238.55 532.709C245.934 502.296 248.745 483.79 249.114 464.428L249.259 458.177L268.623 447.154C279.291 441.121 288.195 436.184 288.421 436.169C288.698 436.241 288.707 439.055 288.554 442.492C288.105 451.624 284.963 460.869 274.63 483.266C269.985 493.453 264.531 504.761 262.535 508.459C260.538 512.158 258.677 516.187 258.353 517.435C257.687 519.999 259.154 522.896 261.815 524.327C266.102 526.625 276.939 521.08 291.1 509.297C304.402 498.252 308.894 495.202 318.997 490.206C324.18 487.632 331.021 484.082 334.165 482.236L339.892 478.989L338.774 485.283C338.187 488.682 336.804 497.423 335.747 504.621C334.622 511.801 333.664 517.766 333.576 517.818C333.42 517.851 330.932 518.314 328.061 518.826C320.753 520.183 318.242 521.306 299.296 532.142C270.257 548.79 246.692 561.459 241.15 563.423C235.07 565.468 233.788 566.985 234.34 571.124C235.335 578.115 241.828 578.47 252.273 572.158C255.435 570.242 262.364 566.641 267.685 564.102C272.988 561.633 286.779 554.119 298.269 547.486C318.28 535.965 328.997 530.315 330.453 530.693C330.799 530.783 329.204 538.063 326.323 549.152L321.551 567.518L316.032 568.822C313.038 569.524 307.635 571.523 304.058 573.331C289.104 580.766 277.504 586.112 271.508 588.401C267.987 589.706 264.428 591.445 263.639 592.202C260.452 595.073 262.446 601.066 266.951 602.236C270.694 603.209 277.789 600.391 297.492 590.344C314.665 581.488 318.189 579.888 318.373 580.602C318.491 581.003 316.191 589.283 313.2 599.086C307.645 617.619 304.462 631.293 303.525 640.594L303.007 646.008L299.812 647.767C295.744 650.039 294.168 653.255 294.947 657.379C296.66 665.592 306.741 668.656 311.887 662.52C315.083 658.763 315.215 655.69 312.345 650.505C311.337 648.69 311.14 647.455 311.633 646.695C315.592 641.139 326.777 609.198 329.099 596.558L330.466 589.589L335.584 597.799C338.46 602.394 342.66 608.442 344.943 611.329C347.245 614.147 350.729 618.677 352.633 621.317C356.681 626.808 359.479 628.571 362.563 627.523C369.951 625.003 368.052 618.073 356.585 605.254C352.751 600.928 347.004 593.146 342.33 585.791L334.4 573.595L335.443 567.873C335.958 564.751 337.577 556.812 338.974 550.294L341.551 538.386L348.992 550.751C353.012 557.493 359.62 567.94 363.561 573.847C367.502 579.754 374.397 591.09 378.927 598.999C383.406 606.822 387.89 614.053 388.855 614.896C393.249 618.775 397.048 619.244 399.265 616.121C400.216 614.741 400.227 613.56 399.413 609.575C398.565 605.433 396.859 602.031 388.404 588.44C382.894 579.462 376.08 568.665 373.132 564.348C370.236 560.118 364.384 550.46 360.111 542.986C355.837 535.513 350.889 527.791 349.151 525.934L345.9 522.499L349.072 510.006C350.855 503.145 352.778 494.322 353.421 490.42C354.065 486.519 354.755 483.294 354.93 483.192C355.628 482.782 367.515 493.417 372.519 498.934C383.111 510.564 387.03 518.833 391.829 539.094C394.887 552.096 395.995 554.382 399.53 555.3C403.273 556.273 407.166 554.103 408.067 550.638C408.409 549.321 408.544 542.253 408.368 534.957C407.961 516.873 408.33 512.604 411.248 501.376C414.507 488.832 417.242 482.292 421.247 477.414L424.497 473.449L425.898 476.032C426.649 477.412 431.074 485.442 435.755 493.909L444.212 509.201L441.782 516.56C438.532 526.222 434.46 536.484 427.191 552.499C423.13 561.58 419.89 570.06 416.869 579.411C414.472 586.927 411.597 595.428 410.476 598.318C409.232 601.398 408.494 604.24 408.658 605.318C409.153 609.96 415.252 613.542 418.78 611.352C421.261 609.777 423.963 603.08 430.529 582.369C433.748 572.255 438.261 559.445 440.587 553.908C444.921 543.493 449.653 527.558 450.016 522.177C450.233 519.348 450.456 519.628 458.593 533.876C466.355 547.286 466.898 548.611 465.948 549.992C463.836 552.994 458.24 570.259 455.343 583.119C453.57 590.797 451.522 598.107 450.227 601.1C447.687 607.173 448.03 609.555 451.831 611.727C455.632 613.898 459.286 613.22 462.045 609.72C463.821 607.444 464.572 605.123 469.64 584.762C472.689 572.459 475.438 562.446 475.646 562.5C477.448 562.968 489.062 580.635 500.57 600.419C508.145 613.411 515.281 624.958 516.262 626.026C517.914 627.639 518.117 628.284 517.522 630.571C516.946 632.789 517.179 633.885 518.821 636.679C520.565 639.648 521.168 640.175 524.079 640.931C534.754 643.704 541.212 630.807 532.466 624.318C531.033 623.28 529.183 622.429 528.21 622.472C525.483 622.43 520.27 615.156 507.6 593.294C501.085 582.205 493.948 570.659 491.682 567.702L487.547 562.263L499.23 564.854C505.609 566.216 512.284 567.58 514.019 567.735C515.755 567.89 522.517 569.203 529.053 570.532C540.703 572.967 540.929 572.951 542.991 571.564C544.162 570.758 545.269 569.344 545.522 568.374C546.188 565.81 545.427 561.617 544.049 560.371C541.604 558.108 528.08 555.482 510.794 553.95C502.845 553.216 500.887 552.781 493.84 550.285C489.512 548.716 483.642 546.821 480.869 546.101L475.74 544.768L467.857 531.252C463.566 523.848 460.218 517.651 460.48 517.498C460.673 517.326 465.088 518.843 470.281 520.784C475.405 522.707 490.229 527.447 503.152 531.248C527.87 538.633 535.931 540.357 543.493 539.732C551.401 539.198 555.231 534.422 552.12 529.026C550.409 526.214 548.073 525.237 541.598 524.813C531.408 524.163 520.02 521.574 486.391 512.318L451.861 502.829L446.86 493.317C439.588 479.442 434.884 469.637 435.39 469.399C436.263 468.886 460.715 471.318 469.212 472.786C484.872 475.449 496.41 480.592 505.21 488.872C511.099 494.397 514.48 495.054 517.92 491.212C521.465 487.25 520.247 483.679 513.203 477.187C509.449 473.696 499.781 461.64 491.24 449.803C481.978 437.038 472.954 421.08 471.514 415.231C470.948 412.569 470.466 410.15 470.52 409.942C470.574 409.734 480.401 412.066 492.254 415.145L513.948 420.782L515.358 426.179C517.305 433.492 522.686 445.248 531.209 460.854C535.121 468.011 540.507 479.177 543.192 485.645C548.577 498.808 551.324 504.183 555.167 509.324C558.549 513.68 560.471 514.254 564.313 511.997C568.854 509.329 568.94 507.576 564.935 501.061C561.033 494.72 549.253 470.573 544.258 458.474C540.604 449.756 532.619 436.065 526.594 428.211C524.724 425.728 523.285 423.578 523.459 423.475C523.616 423.442 528.986 424.985 535.324 427.076C541.68 429.097 550.842 431.996 555.691 433.552L564.576 436.378L566.956 440.03C568.206 442.056 570.983 447.883 573.073 452.939C577.25 463.347 589.444 485.899 592.354 488.653C596.383 492.511 600.977 491.633 602.237 486.782C602.904 484.217 602.427 483.205 592.543 466.284C583.018 449.974 579.502 443.29 579.826 442.042C579.88 441.834 587.176 443.656 595.906 446.22C610.423 450.436 627.497 454.207 638.86 455.753C642.226 456.184 642.605 456.43 642.679 457.855C642.689 458.672 643.61 460.539 644.605 461.833C649.619 468.167 658.873 466.724 661.739 459.108C664.269 452.219 657.48 444.462 650.516 446.204C649.088 446.573 648.238 446.426 647.394 445.689C646.619 444.97 645.094 444.574 642.524 444.498C640.476 444.409 634.335 443.554 628.908 442.513C618.035 440.502 581.662 431.274 581.149 430.4C580.841 429.876 589.44 424.12 608.499 412.278C619.085 405.706 623.766 401.077 625.134 395.81C626.395 390.959 622.926 386.654 618.042 386.939C615.852 387.11 615.169 387.746 610.917 393.004C609.581 394.728 606.152 397.389 602.747 399.389C599.603 401.236 594.533 404.802 591.523 407.275C588.513 409.748 582.57 413.827 578.412 416.446C574.202 418.977 569.466 422.112 567.84 423.243L564.971 425.457L549.839 420.194C541.494 417.285 534.655 414.843 534.535 414.737C534.501 414.581 539.247 412.263 545.108 409.642C580.203 393.606 602.202 381.269 613.182 371.471C616.265 368.721 616.872 366.955 615.561 364.025C614.761 362.263 614.019 361.7 611.524 361.052C608.336 360.224 602.892 360.955 601.472 362.435C596.912 367.17 576.082 378.996 548.688 392.446C541.22 396.128 531.394 401.196 526.871 403.794L518.612 408.529L498.065 402.746L477.536 396.894L481.855 391.949C496.513 375.116 517.301 366.016 544.029 364.527C548.982 364.26 553.678 363.557 554.569 362.974C556.945 361.52 557.638 358.001 556.206 354.965C554.673 351.755 553.151 351.064 545.775 350.405C532.204 349.099 517.776 346.534 502.787 342.713C487.104 338.712 468.889 332.5 469.888 331.502C470.186 331.209 478.039 327.183 487.392 322.51L504.406 313.984L513.07 316.235C517.853 317.477 526.314 319.084 531.882 319.865C545.656 321.816 562.36 326.156 575.652 331.385C581.571 333.663 591.113 336.808 596.935 338.321C607.036 341.02 607.539 341.077 609.46 339.948C610.945 339.076 611.667 338.006 612.279 335.649C613.342 331.56 611.477 328.486 607.387 327.424C605.862 327.028 597.64 323.929 589.075 320.446C571.111 313.263 565.898 311.687 543.017 306.629C533.223 304.455 526.587 302.656 526.677 302.31C526.836 301.981 530.958 299.501 535.83 296.698L544.734 291.761L552.867 293.208C583.039 298.68 582.624 298.572 597.211 304.508C600.084 305.698 600.605 305.686 603.05 304.249C606.281 302.351 607.762 298.075 606.171 295.368C604.119 291.876 600.623 290.523 581.128 285.532L562.517 280.844L572.615 274.442C591.99 262.237 625.033 239.009 628.385 235.219C629.544 233.892 630.45 233.536 631.906 233.914C636.688 235.157 641.843 231.835 643.175 226.707C644.562 221.37 639.808 215.178 634.37 215.318C629.019 215.408 625.939 217.863 624.763 222.958C624.061 225.661 623.763 225.954 621.275 226.417C618.386 226.998 616.673 228.181 602.069 239.109C594.251 244.994 557.144 268.202 556.734 267.504C556.631 267.329 557.368 262.786 558.339 257.341C559.24 251.878 560.446 243.535 560.872 238.763C561.367 234.009 562.084 227.832 562.561 225.145C562.986 222.37 563.152 219.453 563.003 218.601C562.268 215.451 560.056 212.286 558.254 211.818C556.175 211.278 552.474 213.276 550.486 216.088C548.374 219.091 546.901 226.181 546.123 237.15C545.213 249.196 542.798 262.477 539.869 271.186L537.727 277.436L527.665 283.7C522.179 287.158 517.62 289.895 517.638 289.825C517.587 289.738 519.341 284.127 521.47 277.356C527.231 259.172 534.758 230.202 537.641 215.119C539.883 203.642 540.113 201.334 539.434 197.68C538.61 192.879 537.042 191.51 532.472 191.728C526.426 191.933 525.187 194.422 523.932 208.079C522.457 224.861 516.873 244.644 504.157 278.776C500.879 287.69 497.652 296.692 497.094 298.84C496.052 302.565 495.911 302.824 491.563 305.32C480.895 311.352 456.524 322.85 455.993 322.046C455.685 321.522 456.938 315.559 459.277 306.845C463.632 290.368 464.963 287.237 479.216 259.718C484.115 250.263 488.399 241.462 488.741 240.146C489.588 236.888 487.189 233.305 483.446 232.333C479.911 231.414 478.62 232.115 474.75 237.324C469.65 244.137 462.949 249.425 446.913 259.315C438.982 264.209 431.696 268.901 430.907 269.658C429.192 271.135 415.463 277.556 414.423 277.286C414.007 277.178 415.829 269.883 418.969 258.935L424.226 240.695L430.897 234.956C440.247 226.879 443.883 224.273 461.163 213.3C479.577 201.66 487.009 198.116 497.971 196.081C512.692 193.247 514.52 192.76 518.097 190.952C521.081 189.434 521.695 188.78 522.326 186.354C522.902 184.136 522.705 182.901 521.543 180.824C519.527 177.193 516.926 176.665 510.568 178.638C507.764 179.463 500.472 181.046 494.348 182.118C488.224 183.19 481.853 184.643 480.197 185.322C470.241 189.468 454.328 199.168 439.775 210.184L432.604 215.571L433.863 209.018C434.522 205.342 435.755 199.743 436.532 196.468C437.939 190.767 438.186 190.387 442.519 185.668C456.273 170.893 469.577 161.551 480.349 159.393C483.707 158.712 487.105 157.597 487.857 156.978C489.958 155.157 490.494 151.671 489.096 148.792C488.109 146.612 487.367 146.049 485.011 145.437C477.664 143.528 465.322 148.312 452.711 157.834L447.096 162.072L449.058 152.816C450.077 147.754 451.869 138.009 452.974 131.194C454.148 124.397 456.145 115.001 457.49 110.394C459.859 102.131 459.965 102.011 462.533 100.384C464.908 98.93 465.296 98.291 466.251 94.6178C467.277 90.6673 467.247 90.2154 465.397 87.3673C463.65 84.6939 462.96 84.2185 459.702 83.3721C455.058 82.1655 451.122 83.3622 448.973 86.5033C447.283 89.0235 446.726 92.8741 447.57 95.6087C448.128 97.1596 447.948 97.8527 445.921 101.099C443.151 105.78 440.522 115.899 439.541 126.224C438.7 134.588 430.463 170.846 429.531 170.16C429.22 169.931 425.152 162.807 420.419 154.253C413.876 142.417 410.503 137.175 405.966 131.853C401.671 126.742 399.466 124.69 397.872 124.276C394.199 123.321 390.03 127.121 390.007 131.48C390.014 132.592 392.033 135.928 395.397 140.353C403.65 151.302 417.938 176.618 420.365 184.647C421.426 188.252 422.578 191.511 422.939 191.827C423.506 192.492 416.751 218.777 415.304 221.212C414.51 222.56 414.1 221.861 411.221 213.863C407.577 203.964 402.606 194.904 397.143 188.305C395.116 185.855 391.309 180.575 388.723 176.573C382.797 167.487 377.578 160.804 366.886 148.704C357.931 138.461 355.6 136.893 352.367 139.087C346.318 143.286 348.644 149.143 362.31 164.606C371.283 174.78 378.113 183.805 386.387 196.386C393.085 206.487 395.353 211.145 400.129 224.372C402.059 229.757 404.726 236.294 405.988 238.842L408.394 243.536L406.018 250.687C404.696 254.635 401.69 264.212 399.36 272.041C397.012 279.939 394.99 286.294 394.852 286.258C393.674 285.952 387.389 279.954 384.52 276.471C379.609 270.312 376.734 265.718 372.815 257.449C366.136 243.284 360.416 223.154 358.548 207.279C358.098 203.315 357.111 199.138 356.444 198.003C354.32 194.787 348.821 194.024 345.672 196.461C343.992 197.801 343.591 199.916 343.824 206.709C344.169 214.493 343.619 225.152 342.376 235.631C341.211 245.242 331.142 287.979 329.616 289.58C328.897 290.355 326.894 287.245 318.518 272.491L308.332 254.456L312.225 239.191C314.386 230.874 316.98 218.896 318.01 212.653C320.905 194.391 324.154 183.028 334.072 156.529C336.404 150.402 338.23 144.514 338.292 143.42C338.303 142.239 337.518 140.704 336.502 139.774C331.213 135.07 326.305 138.012 319.911 149.52C314.841 158.783 312.105 167.32 308.108 186.405C306.057 196.008 302.552 210.635 300.307 218.707L296.227 233.554L292.975 226.421C291.101 222.53 288.166 216.737 286.337 213.524L283.126 207.659L287.803 193.929C290.552 185.913 293.456 176.161 294.688 170.563C296.392 162.867 297.179 160.408 298.8 157.87C301.354 154.021 301.463 151.607 299.285 148.6C296.627 144.876 290.673 144.439 288.037 147.749C285.438 150.921 281.907 160.805 277.838 176.469C275.533 185.34 273.503 192.581 273.365 192.545C273.226 192.509 265.307 179.132 255.713 162.804C246.137 146.406 237.957 133.183 237.556 133.301C237.068 133.47 237.025 132.497 237.403 131.042C239.168 124.249 233.615 117.998 227.088 119.483C221.5 120.769 218.797 125.763 220.409 131.805C221.029 134.26 221.922 135.379 224.062 136.823C226.462 138.409 229.51 143.196 244.708 169.562C254.505 186.535 262.141 200.43 261.62 200.443C261.098 200.456 255.212 198.334 248.497 195.702C228.958 188.035 210.733 184.706 204.921 187.709C202.512 189.007 201.751 192.508 203.377 195.076C204.696 197.12 204.765 197.138 224.881 202.587C240.371 206.76 248.58 209.337 259.762 213.574L274.388 219.076L276.597 222.535C277.726 224.456 280.252 229.255 282.109 233.215C283.896 237.157 286.215 241.903 287.241 243.649C288.282 245.621 288.567 246.805 288.012 246.661C287.458 246.517 277.88 243.51 266.796 240.038C232.659 229.319 218.592 225.368 206.436 223.171C192.945 220.702 189.803 220.551 187.617 222.129C185.501 223.725 184.4 228.248 185.631 230.343C186.195 231.304 187.781 232.603 189.147 233.328C192.502 234.94 210.245 239.55 233.386 244.749C249.107 248.316 253.923 249.715 262.353 252.867C275.957 258.03 288.636 261.916 294.033 262.504L298.51 262.928L308.907 280.722L319.321 298.447L309.964 296.016C298.459 293.026 272.091 283.734 262.041 279.125C255.555 276.182 246.343 271.199 230.101 261.948C227.526 260.465 224.585 259.257 223.63 259.23C221.111 259.242 217.42 262.056 216.808 264.413C215.889 267.947 217.865 270.31 224.898 274.283C231.949 278.187 240.657 285.11 245.953 290.925C247.793 292.957 251.531 298.22 254.234 302.621C256.938 307.023 262.367 315.462 266.325 321.3C275.115 334.459 281.034 346.133 279.463 347.057C279.201 347.211 269.204 344.391 257.252 340.842L235.53 334.458L233.231 331.345C231.979 329.614 228.612 325.484 225.828 322.245C220.055 315.418 210.398 302.181 203.754 291.873C193.684 276.235 185.994 258.848 185.09 249.513C184.599 244.28 182.729 241.797 179.065 241.659C169.099 241.288 169.181 251.224 179.272 273.896C186.368 289.871 193.191 301.484 203.47 315.178L211.808 326.371L206.417 325.192C203.401 324.556 197.822 322.959 193.995 321.742C188.003 319.742 187.087 319.282 187.116 318.032C187.088 317.284 186.611 316.273 185.903 315.867C182.725 313.857 181.096 311.584 173.346 298.695C165.648 285.893 164.83 284.201 163.193 277.117C161.205 268.536 160.046 266.163 157.02 264.711C155.377 263.914 154.455 264.044 152.151 265.221C149.586 266.552 149.234 267.053 148.369 270.38C147.736 273.101 147.784 275.48 148.535 278.857C149.833 284.965 151.246 288.07 158.785 301.2L165.042 312.148L155.161 310.025C149.682 308.897 137.958 307.034 129.057 305.979C120.156 304.925 109.263 303.278 104.755 302.403C97.1794 300.804 96.5044 300.555 94.9751 298.752C92.6402 295.778 87.9657 294.119 84.6225 295.026C79.3123 296.384 75.9201 302.605 77.486 307.969ZM277.767 299.192C294.362 305.945 315.135 311.712 322.881 311.801L327.674 311.863L330.55 316.457C332.125 318.938 336.653 325.146 340.653 330.254C348.825 340.664 358.588 353.78 358.48 354.196C358.426 354.404 357.339 355.454 356.06 356.675C353.854 358.617 352.268 361.017 349.896 365.875C348.976 367.708 348.907 367.69 345.48 366.355C338.834 363.741 317.322 357.116 304.915 353.892L292.457 350.581L291.394 345.274C290.813 342.385 289.157 337.368 287.693 334.176C285.19 328.717 268.428 300.391 265.237 296.158C264.413 295.056 263.918 294.114 264.093 294.011C264.267 293.908 270.395 296.24 277.767 299.192ZM250.473 392.276C261.088 386.452 270.895 377.754 279.036 366.922L283.116 361.471L305.519 367.514C317.821 370.859 332.376 374.64 337.819 375.907L347.628 378.307L347.829 380.949L348.013 383.66L341.934 387.408C338.579 389.496 330.803 394.651 324.649 398.971C313.479 406.649 300.186 414.811 295.286 416.867L292.723 417.903L288.285 415.048C280.688 410.115 270.736 406.271 254.207 401.828L239.115 397.833L241.834 396.764C243.265 396.1 247.191 394.087 250.473 392.276ZM317.537 418.653C328.75 411.949 341.504 403.869 345.893 400.644L353.92 394.813L355.503 396.408L357.156 398.021L355.156 402.015C352.378 407.582 350.734 414.479 348.711 428.529C346.964 440.948 344.098 457.96 343.071 461.91C342.549 463.92 342.112 464.177 337.205 465.121C333.359 465.972 329.872 467.433 324.091 470.888C317.524 474.804 294.478 489.459 285.985 495.094C283.643 496.705 283.643 496.705 284.439 495.062C289.412 485.035 291.498 479.288 294.955 465.981C298.865 450.646 299.322 446.326 297.802 435.943C297.426 433.404 297.168 431.265 297.135 431.109C297.171 430.97 306.324 425.358 317.537 418.653ZM340.932 298.143C341.919 296.624 343.797 292.525 345.132 289.098C347.605 282.712 348.894 276.611 352.009 255.225C352.787 249.952 353.557 245.565 353.663 245.444C353.819 245.411 355.178 248.723 356.704 252.819C360.129 261.847 368.62 277.297 373.736 283.805C377.289 288.354 386.677 296.934 389.926 298.666L391.551 299.532L386.611 319.112C383.89 329.873 381.108 341.432 380.521 344.83C379.676 349.79 379.196 351.071 378.448 351.098C377.858 351.093 375.427 351.053 372.995 351.013L368.584 350.903L363.792 343.147C361.122 338.902 354.629 329.15 349.297 321.477C338.825 306.252 337.322 303.494 338.447 302.011C338.817 301.441 339.996 299.75 340.932 298.143ZM371.299 405.1C372.546 405.424 375.116 405.5 377.029 405.257L380.454 404.889L391.435 419.58C398.573 429.129 405.118 438.968 410.179 447.681L417.941 461.092L414.561 464.135C407.713 470.272 401.115 483.133 397.262 497.964L395.083 506.35L392.91 502.752C386.169 491.679 369.868 475.532 360.259 470.371C358.357 469.433 356.942 468.326 357.032 467.979C357.141 467.564 357.844 462.863 358.571 457.503C359.797 448.796 365.285 420.554 368.016 408.907L369.063 404.593L371.299 405.1ZM403.451 310.688C405.248 306.05 407.191 300.562 407.75 298.414C408.758 294.533 408.845 294.481 413.173 292.35C415.615 291.209 420.969 288.827 425.119 287.094C429.182 285.412 438.17 280.719 444.963 276.787C451.825 272.873 457.36 269.798 457.324 269.937C457.27 270.145 456.136 272.514 454.843 275.211C453.286 278.358 450.679 286.115 447.556 296.993C442.494 314.766 441.832 318.737 443.062 324.827C443.41 326.619 443.619 328.376 443.529 328.722C443.439 329.069 439.297 331.913 434.301 334.907C422.685 342.024 414.505 347.593 403.574 355.777C398.781 359.415 394.428 362.501 394.027 362.619C393.557 362.718 392.556 362.015 391.627 361.033L390.116 359.161L395.164 339.165C398.663 325.129 401.191 316.538 403.451 310.688ZM407.613 394.337C413.351 395.606 427.876 398.936 439.782 401.808C464.236 407.644 461.816 406.423 461.307 412.653C460.741 419.387 465.162 429.71 479.706 455.462L483.826 462.674L478.163 460.832C469.851 458.081 459.374 456.542 442.535 455.57L427.675 454.669L425.184 449.73C420.24 439.715 408.567 420.85 400.521 409.955L392.252 398.78L394.68 395.416L397.108 392.051L407.613 394.337ZM410.905 368.854C414.614 365.97 421.641 361.137 426.636 358.144C431.562 355.133 439.739 349.859 444.861 346.381C452.255 341.273 454.402 340.129 455.508 340.713C472.105 349.168 483.163 353.595 497.372 357.287L505.274 359.34L501.193 361.091C494.339 364.119 482.332 372.171 477.267 377.144C474.603 379.707 470.51 384.637 468.17 387.95L463.84 394.075L431.472 385.665L399.172 377.273L401.653 375.698C403.068 374.808 407.196 371.737 410.905 368.854Z" fill="#E2DCDA" fill-opacity="0.28"/>
<path d="M156.872 412.791C156.978 416.37 159.038 418.976 162.76 420.313C166.69 421.705 169.109 421.223 172.086 418.593C174.783 416.187 175.537 413.571 174.602 409.481C172.937 401.65 162.375 399.868 158.369 406.743C156.868 409.386 156.796 409.664 156.872 412.791Z" fill="#E2DCDA" fill-opacity="0.28"/>
<path d="M199.174 261.089C200.032 264.049 202.683 266.661 205.456 267.382C209.614 268.462 215.134 265.161 216.232 260.934C217.349 256.637 214.116 251.136 209.819 250.019C205.452 248.885 200.021 252.134 198.868 256.57C198.598 257.61 198.736 259.643 199.174 261.089Z" fill="#E2DCDA" fill-opacity="0.28"/>
<path d="M337.196 179.536C337.07 183.721 339.456 186.782 343.754 187.899C346.18 188.529 347.327 188.383 349.98 187.001C352.738 185.498 353.265 184.895 353.985 182.123C355.138 177.687 353.001 173.951 348.206 172.187C345.228 171.117 344.55 171.163 342.16 172.392C339.227 173.997 337.343 176.689 337.196 179.536Z" fill="#E2DCDA" fill-opacity="0.28"/>
<path d="M247.302 538.609C249.775 543.616 256.513 545.589 260.677 542.38C263.615 540.184 264.739 535.001 262.965 531.58C260.353 526.537 252.67 525.354 248.932 529.488C246.545 532.123 245.922 535.661 247.302 538.609Z" fill="#E2DCDA" fill-opacity="0.28"/>
<path d="M392.205 575.519C392.871 578.651 395.35 581.071 398.608 581.917C403.945 583.304 408.416 580.618 409.875 575.005C410.451 572.787 410.254 571.552 408.923 568.986C407.317 566.054 406.955 565.738 403.282 564.783C399.608 563.829 399.138 563.929 396.308 565.709C393.809 567.353 393.123 568.285 392.511 570.641C392.079 572.304 391.954 574.492 392.205 575.519Z" fill="#E2DCDA" fill-opacity="0.28"/>
<path d="M486.373 227.619C487.861 230.151 488.603 230.713 491.444 231.452C495.88 232.604 499.416 231.525 501.39 228.487C504.509 223.601 502.723 217.661 497.445 215.476C491.821 213.201 487.006 215.501 485.529 221.185C484.755 224.165 484.834 224.999 486.373 227.619Z" fill="#E2DCDA" fill-opacity="0.28"/>
<path d="M521.36 506.163C523.797 511.31 529.113 513.061 533.828 510.291C538.351 507.693 539.656 501.817 536.726 497.43C535.115 495.088 530.302 493.394 527.238 494.077C522.208 495.212 519.163 501.523 521.36 506.163Z" fill="#E2DCDA" fill-opacity="0.28"/>
</g>
<defs>
<clipPath id="clip0_126_4401">
<rect width="608.664" height="607.997" fill="white" transform="translate(0 589.104) rotate(-75.435)"/>
</clipPath>
</defs>
</svg>
